<?xml version="1.0" encoding="UTF-8"?>
<svg width="500" height="1544" enable-background="new 0 0 500 1544" version="1.1" viewBox="0 0 500 1544" xmlns="http://www.w3.org/2000/svg">
 <g transform="translate(-182 -4.4967e-6)" stroke-width=".3">
  <path d="m364.73 4.0592c14.32-3.15 29.04-4.25 43.68-3.82 11.07 0.06 22.03 1.71 32.95 3.21 13.53 2.58 26.96 5.88 39.93 10.57 9.69 3.43 19.16 7.53 28.29 12.27 5.69 2.99 11.27 6.21 16.66 9.73 7.17 4.55 13.58 10.24 21.22 14.04 9.23 4.92 21.45 7.89 30.63 1.27 9.13-6.6 13.2-17.78 16.04-28.23 11.3 14.52 17.94 32.11 22.09 49.89 4.71 23.09 4.5 47.36-2.46 69.97-2.31 5.86-4.71 11.7-7.89 17.15-1.59 2.63-3.4 5.12-5.35 7.5-3.68 3.61-7.34 7.26-10.55 11.3 0.31 0.4 0.92 1.2 1.23 1.6 0.13 3.37 0.03 6.74 0.21 10.11 0.46 8.59 0.67 17.18 1.06 25.77-3.64-0.64-7.34-0.7599-11.01-0.86 0.05-6.64-0.13-13.29 0.56-19.9 0.25-2.22 0.03-4.85-1.9-6.27-2.72-2-6.29-1.77-9.48-1.87-9.67 0.14-19.33 0.92-29 0.5-21.24-0.61-42.16-6.51-60.99-16.24-27.91-14.58-52.05-35.05-76.86-54.17-9.98-7.54-20.79-14.6-33.16-17.38-11.77-2.63-24.93-1.43-35.02 5.61-11.03 7.53-17.75 19.62-22.78 31.67-5.6-5.65-12.06-11.21-20.12-12.71-5.47-1.12-11.29 0.86-15.15 4.83-5.84 5.89-8.47 14.11-10.15 22.04-2.88 15-2.22 30.42-0.44 45.51 0.46 6.11 0.23 12.26 0.41 18.39-3.68 0.04-7.35 0.37-11 0.78 0.12-4.31 0.16-8.61 0.52-12.9 0.43 0.66 0.87 1.33 1.32 2.01-0.41-7.9 0.26-15.83-0.41-23.72 0.01-1.02-0.25-1.94-0.8-2.76-9.68-23.06-15.51-48.47-11.77-73.5 1.64-8.73 4.29-17.44 9.29-24.85 4.55-6.87 11.49-12.43 19.71-14.01 9.58-1.64 19.11 2.12 26.84 7.56-0.17-4.83-0.14-9.68 0.67-14.44 2.5-19.65 16.48-36.15 33.72-45.05 9.1599-4.96 19.12-8.3 29.26-10.6z" fill="#7b553e" stroke="#7b553e"/>
  <path d="m335.61 105.81c10.09-7.04 23.25-8.24 35.02-5.61 12.37 2.78 23.18 9.84 33.16 17.38 24.81 19.12 48.95 39.59 76.86 54.17 18.83 9.73 39.75 15.63 60.99 16.24 9.67 0.42 19.33-0.36 29-0.5 3.19 0.1 6.76-0.13 9.48 1.87 1.93 1.42 2.15 4.05 1.9 6.27-0.69 6.61-0.51 13.26-0.56 19.9-7.66-0.34-15.3-0.85-22.95-1.07-0.01-3.14 0.25-6.3-0.16-9.42-0.7-1.05-1.88-1.58-2.95-2.12-27.65-12.03-59.07-13.85-88.39-7.59-2.14 0.27-3.62 2.2-3.26 4.34 0.22 5.62-0.77 11.42 0.84 16.9-4.44 1.09-8.84 2.37-13.06 4.1299-6.29 2.6201-13.16 3.2401-19.88 3.7401-9.85 0.44-19.84 0.19-29.46-2.11-5.29-1.62-10.32-4.04-15.76-5.18 0.92-1.66 1.64-3.45 1.48-5.37-0.11-4.66 0.23-9.34-0.2-13.98-0.07-1.42-1.65-2.03-2.78-2.39-29.51-6.39-61.2-4.53-89.01 7.68-4.59 1.65-2.26 7.53-2.6 11.18-8.65 0.41-17.29 0.82-25.94 1.27-0.18-6.13 0.05-12.28-0.41-18.39-1.78-15.09-2.44-30.51 0.44-45.51 1.68-7.93 4.31-16.15 10.15-22.04 3.86-3.97 9.68-5.95 15.15-4.83 8.06 1.5 14.52 7.06 20.12 12.71 5.0299-12.05 11.75-24.14 22.78-31.67z" fill="#f8b57e" stroke="#f8b57e"/>
  <path d="m257.01 178.95c0.55 0.82 0.81 1.7401 0.8 2.76 0.67 7.89 0 15.82 0.41 23.72-0.45-0.68-0.89-1.35-1.32-2.01 0.24-3.9 0.2-7.82 0.38-11.72 0.03-2.86 0.62-5.93-1.04-8.46l1.23 0.92c-0.19-1.74-0.34-3.48-0.46-5.21z" fill="#3c2515" stroke="#3c2515"/>
  <path d="m295.92 203.09c27.81-12.21 59.5-14.07 89.01-7.68 1.13 0.36 2.71 0.97 2.78 2.39 0.43 4.64 0.09 9.32 0.2 13.98 0.16 1.92-0.56 3.71-1.48 5.37-21.67-6.02-44.48-6.22-66.77-4.47-8.75 0.9-17.55 1.23-26.34 1.59 0.3401-3.65-1.9899-9.53 2.6001-11.18z" fill="#7b553e" stroke="#7b553e"/>
  <path d="m467.01 195.33c29.32-6.2599 60.74-4.44 88.39 7.59 1.07 0.54 2.25 1.07 2.95 2.12 0.41 3.12 0.15 6.28 0.16 9.42-20.33-0.45-40.56-3.6-60.92-2.56-11.13 0.37-22.2 1.99-33 4.67-1.61-5.48-0.62-11.28-0.84-16.9-0.36-2.14 1.12-4.07 3.26-4.34z" fill="#7b553e" stroke="#7b553e"/>
  <path d="m319.66 212.68c22.29-1.75 45.1-1.55 66.77 4.47 5.44 1.14 10.47 3.56 15.76 5.18 9.62 2.3 19.61 2.55 29.46 2.11 6.72-0.5 13.59-1.12 19.88-3.7401 4.22-1.7599 8.62-3.04 13.06-4.1299 10.8-2.6801 21.87-4.3 33-4.67 20.36-1.04 40.59 2.11 60.92 2.56 7.65 0.22 15.29 0.73 22.95 1.07 3.67 0.1 7.37 0.22 11.01 0.86 1.25 1.02 2.39 2.2401 3.1 3.72-1.73 4.8-1.24 10.19 0.09 15.04-0.03 2.65-1.03 5.15-1.94 7.6l-0.42 0.58c-5.39 5.28-9.42 11.82-12.61 18.62-6.19 11.65-10.16 24.78-19.13 34.75-9.4 9.57-22.79 13.9-35.75 15.85-22.62 3.07-46.43-0.41-66.61-11.32-5.3-2.79-10.05-6.88-12.76-12.3-5.66-11.24-6.83-24.17-12.63-35.36-1.85-3.46-4.88-7.22-9.2-7.04-4.31-0.28-7.47 3.29-9.35 6.74-5.94 11.14-7.04 24.11-12.58 35.41-2.5 5.25-7.0099 9.22-12.04 12-19.85 11.18-43.48 14.78-65.96 12.08-14.06-1.94-28.96-6.46-38.54-17.57-8.23-9.96-12.2-22.49-18.05-33.83-3.51-6.45-6.95-13.32-12.76-18.03l-0.09-0.29c-1.25-3.63-2.39-7.36-2.13-11.25 0.2401-5.22-1.71-11.84 3.27-15.47 3.65-0.41 7.32-0.7401 11-0.78 8.65-0.45 17.29-0.86 25.94-1.27 8.79-0.36 17.59-0.69 26.34-1.59m-15.55 8.65c-6.67 1.22-13.65 3.27-18.53 8.2401-3.95 3.92-5.62 9.65-5.3 15.13 0.64 9.67 0.58 19.39 1.27 29.07 2.8701 10.56 9.19 20.73 18.92 26.22 5.52 3.23 11.86 4.57 18.1 5.58 14.2 2.45 28.9 2.42 42.99-0.72 7.15-1.88 14.89-2.65 20.95-7.28 10.79-7.82 15.4-21.23 17.71-33.83 1.42-8.82 3.53-18.84-1.83-26.8-6.65-9.69-18.77-13.52-29.82-15.4-19.3-0.46-38.61-0.74-57.91-0.92-2.21 0.01-4.4 0.31-6.55 0.71m171.62-0.29c-7.04 1.13-14.43 3.02-19.76 8.03-4.3 3.92-6.11 9.94-5.84 15.64 0.82 9.63 0.59 19.31 1.25 28.95 2.6 9.45 7.81 18.56 15.89 24.36 5.5 4.02 12.16 6.03 18.81 7.14 15.03 2.84 30.65 3.02 45.61-0.37 7.09-1.85 14.76-2.66 20.76-7.27 10.75-7.82 15.33-21.19 17.65-33.75 1.33-8.56 3.5099-18.1-1.32-26-6.37-10.26-18.9-14.24-30.16-16.21-18-0.45-36.01-0.71-54.01-0.89-2.97-0.08-5.95-0.13-8.88 0.37z" fill="#51515d" stroke="#51515d"/>
  <path d="m304.11 221.33c2.15-0.4 4.34-0.7 6.55-0.71 19.3 0.18 38.61 0.46 57.91 0.92 11.05 1.88 23.17 5.71 29.82 15.4 5.36 7.96 3.25 17.98 1.83 26.8-2.31 12.6-6.92 26.01-17.71 33.83-6.06 4.6299-13.8 5.4-20.95 7.28-14.09 3.14-28.79 3.17-42.99 0.72-6.24-1.01-12.58-2.35-18.1-5.58-9.73-5.49-16.05-15.66-18.92-26.22-0.69-9.68-0.6299-19.4-1.27-29.07-0.32-5.48 1.35-11.21 5.3-15.13 4.88-4.9701 11.86-7.0201 18.53-8.2401m28.86 19.83c-6.83 2.59-11.16 10.37-9.54 17.53 1.38 7.73 9.33 13.5 17.12 12.31 8.6-0.79 15.18-9.77 13.35-18.22-1.42-9.27-12.28-15.35-20.93-11.62z" fill="#f8b57e" stroke="#f8b57e"/>
  <path d="m475.73 221.04c2.93-0.5 5.91-0.45 8.8799-0.37 18 0.18 36.01 0.44 54.01 0.89 11.26 1.97 23.79 5.95 30.16 16.21 4.83 7.9 2.65 17.44 1.32 26-2.32 12.56-6.9 25.93-17.65 33.75-6 4.61-13.67 5.42-20.76 7.27-14.96 3.39-30.58 3.21-45.61 0.37-6.65-1.11-13.31-3.12-18.81-7.14-8.08-5.8-13.29-14.91-15.89-24.36-0.66-9.64-0.43-19.32-1.25-28.95-0.27-5.7 1.54-11.72 5.84-15.64 5.3301-5.01 12.72-6.9 19.76-8.03m32.09 19.96c-6.41 2.22-10.9 8.98-10.22 15.77 0.36 8.39 8.59 15.34 16.93 14.28 9.13-0.55 16.17-10.48 13.55-19.27-1.97-8.59-12.01-14.03-20.26-10.78z" fill="#f8b57e" stroke="#f8b57e"/>
  <path d="m595.66 235.15c-1.33-4.85-1.82-10.24-0.09-15.04 0.56 4.99 0.2 10.03 0.09 15.04z" fill="#3d3d4a" stroke="#3d3d4a"/>
  <path d="m332.97 241.16c8.65-3.73 19.51 2.35 20.93 11.62 1.83 8.45-4.75 17.43-13.35 18.22-7.79 1.19-15.74-4.58-17.12-12.31-1.62-7.16 2.71-14.94 9.54-17.53m7.12 7.1c-2.96 0.92-4.57 4.86-2.67 7.4399 1.83 3.29 7.14 3.0601 8.75-0.3199 2.29-3.75-2.07-8.73-6.08-7.12z" fill="#553013" stroke="#553013"/>
  <path d="m507.82 241c8.25-3.25 18.29 2.19 20.26 10.78 2.62 8.79-4.42 18.72-13.55 19.27-8.34 1.06-16.57-5.89-16.93-14.28-0.68-6.79 3.81-13.55 10.22-15.77m5.17 8.09c-2.64 1.9-2.54 6.27 0.1801 8.06 2.87 2.27 7.72 0.16 7.92-3.54 0.7199-4.23-4.8901-7.4-8.1001-4.52z" fill="#553013" stroke="#553013"/>
  <path d="m255.33 243.33c5.81 4.71 9.25 11.58 12.76 18.03-0.3 12.78 0.34 25.57 0.33 38.36 0.93 17.4 7.85 35.39 21.97 46.29 16.1 12.52 37.39 15.15 57.18 14.81 4.2 0.31 7.74-2.22 11.57-3.46 19.28-7.12 40.84-6.65 60.26-0.33 2.35 0.67 4.86 2.07 7.3 0.85 19.52-6.81 41.33-7.97 61.02-1.17 3.73 1.04 7.09 3.21 10.9 3.97 14.37 0.57 29.07-0.49 42.7-5.4 12.05-4.21 22.91-12.3 29.5-23.34 7-11.72 10.01-25.6 9.68-39.17-0.05-10.28 0.37-20.55 0.19-30.82 3.19-6.8 7.22-13.34 12.61-18.62 0.08 2.36 0.14 4.72 0.22 7.1l0.87-0.4c-0.23 0.23-0.69 0.68-0.93 0.9-0.17 29.22-0.1 58.45-0.03 87.68 1.32 0.08 2.65 0.17 4 0.27-1.25 2.28-0.67 4.93-0.79 7.41-1.99 7.37-0.92 15.21-0.45 22.73l1.34 0.89 0.03 0.42c0.36 6.37 0.42 12.76 0.68 19.14 0.1 8.39 1.36 16.94-0.89 25.18l1.96 0.44c-0.76 0.41-1.51 0.81-2.26 1.2-1.55 6.35-3.66 12.59-6.7 18.39-5.63 11.08-14.58 20.26-25.09 26.8-15.28 9.26-33.04 13.51-50.65 15.36-7.17 0.39-14.34-0.03-21.51 0.19l0.01-1.07c-3.47 0.25-6.9399 0.47-10.4 0.83l-0.79 0.06c-5.4301-0.17-10.84-0.11-16.26-0.14-4.81-0.12-9.58 0.99-14.38 0.35-15.21-0.16-30.47 0.28-45.67-0.19-3.6899 0.41-7.39 0.71-11.1 0.54l0.89-0.21c2.48-0.23 4.97-0.41 7.44-0.79-3.51-1.08-7.34-0.96-10.77 0.32-8.98 0.54-17.99-0.3-26.95 0.37-10.15-0.33-20.31 0.08-30.45-0.23-15.05-1.5-30.11-4.78-43.81-11.35-12.55-6.1-23.68-15.48-30.72-27.63-2.73-4.8199-5.1-9.87-6.62-15.2-0.65-1.77-0.79-4.03-2.68-4.94l1.31 0.48c-1.05-5.1-2.38-10.23-2.13-15.47 0.17-3.94 0.4-7.86 0.45-11.8 0.3-6.54 0.46-13.09 0.66-19.63 0.42-10.21 0.56-20.41 1.08-30.61-0.4-0.43-1.2-1.31-1.6-1.74 1.9301-0.1 3.8701-0.25 5.8-0.49l0.67-0.12c-0.04-28.99 0.11-57.99-0.08-86.98l-0.62-0.5099-0.92-0.72c-0.21-2.2801-0.12-4.5601-0.13-6.8301m129.55 141.64c-2.61 1.01-4.19 3.97-3.91 6.7 0.49 2.8 3.38 3.98 5.66 5.06 12.27 5.34 25.5 8.99 38.95 9.04 13.7-0.71 27.26-4.42 39.5-10.57 5.21-2.24 2-11.77-3.43-10.03-9.1 3.01-18.44 5.46-27.99 6.49-13.44 1.89-27.03-0.8-39.96-4.41-2.96-0.64-5.77-2.4-8.82-2.28z" fill="#7b553e" stroke="#7b553e"/>
  <path d="m415.26 253.27c1.88-3.45 5.04-7.02 9.35-6.74 4.32-0.18 7.35 3.58 9.2 7.04 5.8 11.19 6.97 24.12 12.63 35.36 2.71 5.42 7.46 9.51 12.76 12.3 20.18 10.91 43.99 14.39 66.61 11.32 12.96-1.95 26.35-6.28 35.75-15.85 8.97-9.97 12.94-23.1 19.13-34.75 0.18 10.27-0.24 20.54-0.19 30.82 0.33 13.57-2.68 27.45-9.68 39.17-6.59 11.04-17.45 19.13-29.5 23.34-13.63 4.91-28.33 5.97-42.7 5.4-3.81-0.76-7.17-2.93-10.9-3.97-19.69-6.8-41.5-5.64-61.02 1.17-2.44 1.22-4.95-0.1801-7.3-0.85-19.42-6.32-40.98-6.79-60.26 0.33-3.83 1.24-7.37 3.77-11.57 3.46-19.79 0.34-41.08-2.29-57.18-14.81-14.12-10.9-21.04-28.89-21.97-46.29 0.01-12.79-0.63-25.58-0.33-38.36 5.85 11.34 9.82 23.87 18.05 33.83 9.58 11.11 24.48 15.63 38.54 17.57 22.48 2.7 46.11-0.9 65.96-12.08 5.03-2.78 9.54-6.75 12.04-12 5.54-11.3 6.64-24.27 12.58-35.41m-13.47 71.47c-1.34 1.78-3.12 4.76-0.57 6.4 12.8 8.8701 30.68 7.9 43.55-0.31 2.41-2.39-1.11-7.91-4.13-5.09-7.37 4.54-16.4 6.91-24.94 4.68-5.05-0.86-9.09-4.23-13.91-5.68z" fill="#f8b57e" stroke="#f8b57e"/>
  <path d="m235.52 253.38c4.57-6.14 13.6-7 19.94-3.22l0.92 0.72c0.07 29.2 0.01 58.4 0.03 87.61-1.93 0.24-3.87 0.39-5.8 0.49-5.9 0.95-11.52-3.57-11.63-9.57 0.01-9.36-0.23-18.72-1.15-28.05-0.79-9.67-2.48-19.28-5.12-28.62-1.7501-6.46-1.4501-13.91 2.8099-19.36z" fill="#fdc18b" stroke="#fdc18b"/>
  <path d="m340.09 248.26c4.01-1.61 8.37 3.37 6.08 7.12-1.61 3.38-6.92 3.61-8.75 0.3199-1.9-2.5799-0.29-6.5199 2.67-7.4399z" fill="#fefefe" stroke="#fefefe"/>
  <path d="m594.39 250.03c5.97-3.41 14-2.77 18.9 2.22 4.67 5.39 5.54 13.07 3.78 19.8-2.44 8.95-4.33 18.07-5.09 27.33-0.96 9.31-1.35 18.68-1.19 28.04-0.17 3.26-0.76 6.89-3.4 9.13-2.67 2.46-6.53 2.69-9.96 2.33-1.35-0.1-2.68-0.19-4-0.27-0.07-29.23-0.14-58.46 0.03-87.68 0.24-0.22 0.7-0.67 0.93-0.9z" fill="#fdc18b" stroke="#fdc18b"/>
  <path d="m512.99 249.09c3.21-2.88 8.82 0.29 8.1 4.52-0.2 3.7-5.05 5.81-7.92 3.54-2.72-1.79-2.82-6.16-0.18-8.06z" fill="#fefefe" stroke="#fefefe"/>
  <path d="m256.38 250.88 0.62 0.5099c0.19 28.99 0.04 57.99 0.08 86.98l-0.67 0.12c-0.02-29.21 0.04-58.41-0.03-87.61z" fill="#3c2515" stroke="#3c2515"/>
  <path d="m401.79 324.74c4.8199 1.45 8.86 4.82 13.91 5.68 8.54 2.23 17.57-0.14 24.94-4.68 3.02-2.82 6.54 2.7 4.13 5.09-12.87 8.21-30.75 9.1801-43.55 0.31-2.55-1.64-0.77-4.62 0.57-6.4z" fill="#f8a056" stroke="#f8a056"/>
  <path d="m596.19 369.02c-0.47-7.52-1.54-15.36 0.45-22.73 0.5 7.86 0.48 15.75 0.89 23.62l-1.34-0.89z" fill="#6e442b" stroke="#6e442b"/>
  <path d="m384.88 384.97c3.05-0.12 5.86 1.64 8.82 2.28 12.93 3.61 26.52 6.3 39.96 4.41 9.55-1.03 18.89-3.48 27.99-6.49 5.43-1.74 8.64 7.79 3.43 10.03-12.24 6.15-25.8 9.86-39.5 10.57-13.45-0.05-26.68-3.7-38.95-9.04-2.28-1.08-5.17-2.26-5.66-5.06-0.28-2.73 1.3-5.69 3.91-6.7z" fill="#f8b57e" stroke="#f8b57e"/>
  <path d="m392.07 476.73c3.43-1.28 7.26-1.4 10.77-0.32-2.47 0.38-4.96 0.56-7.44 0.79-0.83-0.12-2.5-0.35-3.33-0.47z" enable-background="new " fill="#614332" opacity=".95" stroke="#614332"/>
  <path d="m365.12 477.1c8.96-0.67 17.97 0.17 26.95-0.37 0.83 0.12 2.5 0.35 3.33 0.47l-0.89 0.21c-4.6 1.24-9.37 0.32-14.05 0.41 5.27 7.31 11.9 13.52 17.67 20.43 28.48 32.28 57.17 64.38 85.6 96.7-17.34 24.73-34.58 49.55-52.13 74.14-29.52-41.65-58.78-83.51-88.08-125.31 2.84-0.22 5.69-0.26 8.54-0.33 4.54-0.09 9.08-0.1299 13.62-0.27 1.12-0.18 2.7401 0.11 3.35-1.13 0.56-3.7 0.14-7.47 0.22-11.19 0.03-2.43 0.12-4.86 0.16-7.27 0.18-6.89 0.28-13.78 0.21-20.66v-2.81c-0.07-3.04-0.07-6.07-0.03-9.1 0.02-2.62 0.08-5.22 0.14-7.82 0.03-1.74 0.06-3.46 0.08-5.17-1.57-0.33-3.13-0.65-4.69-0.93z" fill="#f8b57e" stroke="#f8b57e"/>
  <path d="m394.51 477.41c3.71 0.17 7.41-0.13 11.1-0.54 15.2 0.47 30.46 0.03 45.67 0.19 4.7 1.3 9.57 0.3 14.36 0.34 5.43-0.18 10.9 0.51 16.28-0.55l0.79-0.06c2.73-0.13 5.46-0.26 8.19-0.6 0.92 1.5 0.72 3.23 0.69 4.94-0.08 2.72-0.03 5.45-0.01 8.19-0.01 1.87-0.01 3.7599 0.02 5.66 0.02 2.79 0.06 5.59 0.08 8.4 0 0.61 0 1.83-0.01 2.43-0.0601 7.4-0.1201 14.8 0.08 22.2 0.12 2.93 0.2 5.87 0.25 8.8199 0.03 2.03 0.09 4.07 0.18 6.12 2.63 0.05 5.27 0.15 7.91 0.23 6.51 0.06 13.02 0.35 19.53 0.51-11.71 17.26-24.07 34.07-35.89 51.26-28.43-32.32-57.12-64.42-85.6-96.7-5.77-6.91-12.4-13.12-17.67-20.43 4.68-0.09 9.45 0.83 14.05-0.41z" fill="#f6986d" stroke="#f6986d"/>
  <path d="m451.28 477.06c4.8 0.64 9.57-0.47 14.38-0.35 5.42 0.03 10.83-0.03 16.26 0.14-5.38 1.06-10.85 0.37-16.28 0.55-4.79-0.04-9.66 0.96-14.36-0.34z" enable-background="new " fill="#cc977a" opacity=".94" stroke="#cc977a"/>
  <path d="m328.85 522.89c12.41-8.8199 26.38-15.13 40.77-19.96 0.07 6.88-0.03 13.77-0.21 20.66-0.1 1.67-0.25 3.34-0.38 5.02-12.4 3.29-24.32 9.07-33.82 17.77-2.66 2.41-5.11 5.04-7.35 7.85-11.3 14.34-16.12 32.68-17.5 50.62-1.8199 25.15 1.98 50.32 7.23 74.86 2.95 14.13 7.03 27.99 10.71 41.95-7.86 1.98-15.13 6.22-20.65 12.16-7.83-24.72-14.52-49.88-18.38-75.55-1.19-9.17-2.29-18.35-2.61-27.59-0.56-12.41-0.09-24.84 1.34-37.17 0.85-7.3101 2.4-14.54 4.67-21.54 3.55-10.83 9-21.02 16.13-29.93 5.7301-7.3101 12.71-13.5 20.05-19.15z" fill="#8d9194" stroke="#8d9194"/>
  <path d="m491.67 505.81c10.75 1.71 21.15 5.65 30.27 11.61 3.22 2.08 6.06 4.75 9.61 6.31h-1.1c9.14 8.09 16.55 17.97 22.54 28.58 1.76 3.53 3.58 7.05 5.26 10.63 4.63 10.34 8.22 21.12 11.2 32.05 4.05 15.65 6.91 31.6 8.72 47.67 0.41 3.58 2.22 6.7599 3.47 10.09 5.76 15.04 8.41 31.04 10.41 46.96 1.04 9.09 1.89 18.2 2.69 27.32-1.72-0.52-3.43-1.03-5.13-1.52-0.35 1.37-0.74 2.74-1.17 4.12-0.43-2.23-0.69-4.65-2.18-6.4501-2.01-1.61-4.36-2.7-6.57-3.98-1.79 2.0701-3.48 4.22-4.93 6.54-0.95 0.3199-1.9 0.65-2.84 0.98 0.0699-12.2-0.02-25.53-7.55-35.81-4.81-6.8401-13.64-10.57-21.86-8.4901-6.49 1.03-12.7 4.2001-17.08 9.14-5.04 5.49-10.35 10.72-15.3 16.3-0.26-0.37-0.79-1.1-1.06-1.46-0.38-2.7001-0.61-5.4-1.02-8.0801-2.94 0.02-5.8799 0.1-8.81 0-2.22-0.2-4.43-0.52-6.62-0.7899 9.85-14.5 20.94-28.22 33.72-40.25 1.93-1.78 3.74-3.6901 5.41-5.7301 4.17-3.4099 8.48-6.66 12.91-9.7399 4.61-2.73 8.44-7.02 9.64-12.35 2.31-10.04-0.92-20.15-3.52-29.78-4.75-16.74-11.27-33.33-21.72-47.38-2.69-3.38-5.44-6.79-8.86-9.44-0.45-0.29-1.36-0.86-1.81-1.14-5.69-4.11-11.34-8.46-18.02-10.86-2.79-1.22-5.71-2.05-8.62-2.85-0.2-7.4-0.14-14.8-0.08-22.2m66.17 148.87 0.2 0.4c-2.33 1.3301-4.02 3.41-5.7401 5.4-0.83 0.83-1.23 1.92-1.58 3.02 3.21 1.28 6.72 1.4199 9.99 2.52 1.5 0.39 3.06 0.39 4.62 0.38-0.06-4.5-1.95-8.6801-3.9-12.62-1.2199 0.25-2.4099 0.55-3.5899 0.9z" fill="#8d9194" stroke="#8d9194"/>
  <path d="m491.75 528.01c2.91 0.8 5.83 1.6299 8.62 2.85 5.92 3.75 11.79 7.63 18.02 10.86 0.45 0.28 1.36 0.85 1.81 1.14l-0.58 0.83c-6.51-0.16-13.02-0.45-19.53-0.51-2.74-2.08-5.44-4.19-8.09-6.35-0.05-2.95-0.13-5.89-0.25-8.82z" fill="#e8e9ea" stroke="#e8e9ea"/>
  <path d="m352.06 543.45c5.72-4.21 11.42-8.45 17.19-12.59-0.08 3.72 0.34 7.49-0.22 11.19-0.61 1.24-2.23 0.95-3.35 1.13-4.54 0.14-9.08 0.18-13.62 0.27z" fill="#e8e9ea" stroke="#e8e9ea"/>
  <path d="m293.64 548.79c5.25-1.72 10.2-4.33 15.16-6.75-7.1299 8.91-12.58 19.1-16.13 29.93-3.58-7.04-12.06-10.99-19.72-8.88-9.55 2.13-15.6 13.42-12.15 22.57 2.53 7.75 11.02 13.03 19.09 11.55 3.04-0.34 5.66-1.99 8.11-3.7-1.43 12.33-1.9 24.76-1.34 37.17-4.96-2.62-10.94-3.54-16.17-1.13-9.96 3.67-13.87 17.36-7.52 25.83 5.53 8.8099 18.9 10.01 26.3 2.89 3.86 25.67 10.55 50.83 18.38 75.55-9.31 9.98-13.24 24.68-9.92 37.94 2.42 10.43 9.21 19.46 17.76 25.73 4.75 5.53 12.18 7.88 19.13 9.2 16.89 2.89 34.82-6.02 42.85-21.12 7.09-12.88 6.93-29.99-1.79-42.06-4.36-7.1901-10.07-13.74-17.53-17.81 4.55-3.6 7.69-9.13 7.42-15.04 0.14-10.71-11.73-19.8-22.01-16.16-7.93 2.03-13.65 10.1-12.69 18.26 0.14 2.88 1.47 5.51 2.77 8.03-1.8 0.2-3.59 0.48-5.34 0.87-3.68-13.96-7.7599-27.82-10.71-41.95-5.25-24.54-9.05-49.71-7.23-74.86 1.38-17.94 6.2-36.28 17.5-50.62 2.8701 4.12 5.4 8.46 8.23 12.61-4.4 5.08-6.79 12.26-4.4 18.8 2.88 9.16 14.54 14.79 23.23 10.06 19.29 28.84 38.48 57.77 59.38 85.47 3.4301 4.4901 6.98 8.9 10.72 13.15-3.81-0.1699-7.78-1.0699-11.46 0.3301-5.01 1.83-9.5 5.7799-11.07 11-1.61 5.23-0.98 11.31 2.46 15.71 4.69 6.7 14.37 9.29 21.69 5.47 9.02-3.99 12.95-16.62 7.01-24.71 5.33-4.14 9.32-9.65 13.57-14.82 9.11-11.4 17.75-23.15 26.43-34.87 2.15 3.2101 4.22 6.8301 7.96 8.41 6.8 3.97 16.32 2.3101 21.33-3.78 4.84-5.34 5.93-13.74 2.25-20-2.89-5.08-8.26-8.06-13.86-9.18 12.52-17.69 24.97-35.43 36.95-53.49 2.37-3.3799 4.22-7.14 7.15-10.09 5.7401 10.94 9.73 22.73 12.85 34.66 2.14 8.77 4.83 17.64 4.32 26.77 0.54 6.83-8.34 9.2-7.94 16.08-4.43 3.08-8.74 6.33-12.91 9.7399-5.54 3.3401-10.13 7.9901-14.81 12.39-9.61 9.17-18.02 19.46-26.12 29.95-9.79-1.01-18.92 8.1-18.24 17.85-0.15 4.39 2.26 8.1899 4.44 11.81-8.71 14.34-15.93 29.89-19 46.48-1.42 9.0499-1.73 19.05 3.22 27.15 2.64 4.89 7.7401 7.55 11.33 11.62 3.04 3.51 7.86 4.05 12.22 3.9401 3.94 0.36 8.2 0.89 11.82-1.12 3.27-1.61 5.7401-5.25 4.98-8.98-0.72-3.9301-4.13-6.61-7.52-8.25 2.47-1.61 5.2-2.8101 7.51-4.65 5.04-4.58 7.35-12.29 4.74-18.72-2.46-7.17-9.94-12.38-17.58-11.58-4.68 0.04-8.47 3-12.28 5.3101 3.05-12.97 9.19-24.94 15.7-36.46 9.65-0.54 17.14-10.91 14.73-20.27 0.71-0.5701 1.43-1.11 2.18-1.62 0.27 0.36 0.8 1.09 1.06 1.46 4.95-5.58 10.26-10.81 15.3-16.3 4.38-4.9399 10.59-8.11 17.08-9.14 7.21 1.17 14.62 4.3601 18.35 11.01-7.71 0.55-15.11 5.87-16.88 13.58-2.6201 9.0599 3.85 19.36 13.01 21.23 3.16 0.73 6.39 0.02 9.58-0.11 1.27-0.06 2.54-0.06 3.83-0.05 1.52 11.23 1.43 22.62 0.34 33.88-3.5099-1.49-7.23-2.84-11.1-2.51-8.85 0.28-16.34 8.53-16.21 17.3-0.2 6.49 3.81 12.72 9.51 15.69 3.38 1.8301 7.37 1.55 11.09 1.99-2.51 6.78-5.79 13.54-11.12 18.57-1.08 1.1-2.54 1.61-3.94 2.15-4.11-5.03-11.3-5.92-17.25-4.26-4.77 0.21-10.42 1.38-12.61 6.1899-2.41 5.51 2.36 11.07 7.41 12.81 3.57 1.7 7.53 0.9299 11.25 0.22 3.59-0.29 7.43-0.45 10.36-2.8199 1.16 0.2699 2.34 0.5299 3.53 0.7899-8.26 4.01-10.65 15.88-5.68 23.33 4.2 7.5199 14.53 10.58 22.22 6.8099 8.61-3.78 12.68-15.02 8.29-23.39-2.46-6.1-8.83-9.13-14.95-10.21 5.9-4.1 10.67-9.75 13.82-16.2 4.32-7.9199 7.15-16.58 8.69-25.44 0.5-0.37 1.5-1.1 1.9901-1.47 0.58 5.48-1.22 11.41 1.22 16.55-1.15 2.39-1.66 5.01-1.5 7.66 0.43 26.94-0.48 53.9 0.36 80.82-0.12 28.73 0 57.45-0.07 86.18-0.03 2.78-0.08 5.61 0.52 8.36-0.91 2.15-0.52 4.52-0.56 6.8-4.82 0.2899-9.66 0.39-14.48-0.07 2.98-3.38 6.09-7.01 6.56-11.69 1.8-10.45-7.85-20.93-18.44-19.83-8.91 0.24-16.52 8.5699-16.24 17.41-0.01 5.37 2.73 10.54 6.94 13.84-7.51 1.1599-15.16 0.2699-22.72 0.5099-9.05-0.11-18.11 0.28-27.15-0.1899 5.28-4.9401 8.7599-12.66 5.94-19.78-3.15-10.8-18.04-15.61-26.8-8.45-9.24 6.2899-9.4 21.56-0.15 27.94-8.2 1.0901-16.52 0.2201-24.76 0.51-8.38-0.14-16.78 0.34-25.13-0.2999 2.58-2.9801 5.72-5.8301 6.38-9.92 2.5-8.78-3.39-19.03-12.36-20.99-8.4-2.54-18.27 2.48-20.93 10.89-2.65 6.98-0.05 15.17 5.72 19.77-4.2 0.9099-8.51 0.5-12.76 0.5499-12.33-0.1699-24.66 0.28-36.98-0.21 4.53-4.04 7.83-9.9401 6.82-16.19-0.77-9.86-11.21-17.43-20.81-15.07-8.94 1.5-15.43 10.91-13.66 19.81 0.38 4.66 3.59 8.17 6.59 11.46-15 0.46-30.01 0.01-45.01 0.22-1.44-0.26-3.36 0.4-4.48-0.62 1.84-2.25 4.17-4.21 5.18-7.02 3.35-7.51 0.46-17.42-6.76-21.53-2.84-1.72-6.13-2.37-9.29-3.1899-0.6201-9-0.1801-18.03-0.38-27.03-0.56-20.99 0.08-41.97 0-62.95 0.05-5.7101-0.89-11.45 0.24-17.11 0.09 3.74 0.26 7.48 0.4 11.23 11.44 0.2 20.42-12.54 16.29-23.25-2.27-6.78-8.74-10.76-15.48-12.01-0.25-9.91-0.3799-19.85-0.02-29.76 3.64-1.36 7.59-2.36 10.57-5 6.02-5.26 7.77-14.94 3.46-21.79-2.79-5.4299-8.9-8.4199-14.83-8.64-0.55 8.88 0.37 17.81-0.48 26.67-1.22-15.06 0.09-30.21-0.25-45.31-0.32-4.8301 0.98-9.91-0.91-14.52l0.02-0.16c0.29-0.47 0.85-1.4 1.14-1.87 0.22 1.49 0.47 3 0.73 4.51 8.49-0.38 16.5-7.23 16.89-15.96 1.21-9.65-7.2-19.26-16.98-19.02-4.76-0.23-8.9 2.4199-12.98 4.48-14.47-3.2001-28.99-6.1901-43.51-9.1901-1.91-0.4099-3.81-0.8199-5.71-1.24 0.02-0.77 0.05-2.3099 0.06-3.0699 0.29-0.28 0.85-0.84 1.14-1.12 0.43-0.03 1.31-0.1 1.74-0.13l0.18-0.75c-0.39 0.03-1.16 0.08-1.55 0.1 1.86-2.9301 1.58-6.51 2.06-9.8 0.74-7.1399 2.18-14.19 2.57-21.36 0.16-3.37 1.05-6.65 1.92-9.8799-0.33-0.75-0.99-2.23-1.33-2.97 1.06-0.93 2.59-1.63 2.81-3.15 2.0699-9.47 4.54-18.87 7.83-27.99 3.88-11.47 9.37-22.46 16.64-32.16 1.52-2.1 2.82-4.36 3.72-6.8l-0.65-0.71c2.98-1.35 6.09-2.6 8.53-4.85 9.1302-7.8902 20.67-12.58 32.53-14.39m53.37 79.38c-8.93 0.39-16.61 8.62-16.21 17.57-0.41 9.39 8.58 17.71 17.82 17.27 9.38-0.04 17.72-8.85 16.94-18.26-0.14-9.45-9.16-17.49-18.55-16.58m66.95 131.94c-9.56 2.64-15.05 14.29-10.96 23.34 3.18 8.78 14.26 13.03 22.72 9.4501 7.12-2.64 11.77-10.63 10.61-18.13-0.81-10.38-12.49-18.02-22.37-14.66m-67.95 65.03c-7.14 0.76-13.27 6.34-14.82 13.32-2.24 9.15 4.08 19.45 13.48 21.02 10.57 2.62 21.85-7 20.92-17.84-0.22-9.8099-9.83-18.11-19.58-16.5m70.01 0.05c-8.97 1.4401-15.59 10.62-14.19 19.57 0.95 9.7 11.34 17.01 20.82 14.75 10.44-1.86 16.98-14.55 12.38-24.12-2.96-7.3001-11.36-11.5-19.01-10.2m71.01-0.02c-6.85 1.26-12.74 6.7201-14.13 13.6-2.31 9.5299 4.97 19.8 14.69 20.9 10.3 1.8301 20.46-7.5499 19.78-17.93 0.01-10.19-10.42-18.45-20.34-16.57m-209.44 65.45c-0.71 5.6799-0.07 11.45-0.55 17.17 0.3199 5.95-0.82 12.05 0.77 17.89 8.72-0.61 16.9-7.8999 16.88-16.92 0.69-9.45-7.71-18.14-17.1-18.14m66.37 0.48c-10.21 2.23-16.28 14.61-11.66 24.02 3.45 8.9 14.95 12.82 23.37 8.67 6.74-3.02 10.85-10.86 9.7599-18.12-1-9.9099-11.85-17.28-21.47-14.57m70.94 0c-9.49 2.1801-15.96 13.26-12.25 22.51 2.6 8.99 13.3 14.05 21.99 10.93 7.56-2.2001 12.45-10.2 11.79-17.91-0.63-5.91-4.21-11.49-9.5099-14.25-3.7001-1.8101-8.0301-2.1801-12.02-1.2801m71-0.01c-8.63 1.85-14.72 11.03-13.13 19.71 1 9.62 11.59 16.56 20.85 14.29 9.32-1.77 15.89-12.14 13.21-21.3-2.04-8.9902-11.98-15.16-20.93-12.7m71.03 0.03c-9.04 1.78-15.38 11.67-13.09 20.63 1.52 8.12 9.61 14.2 17.79 13.71 10.72-0.07 19.11-11.56 16.06-21.78-1.98-8.86-12-14.94-20.76-12.56z" fill="#e6e7e8" stroke="#e6e7e8"/>
  <path d="m520.2 542.86c3.42 2.65 6.17 6.06 8.86 9.44 10.45 14.05 16.97 30.64 21.72 47.38 2.6 9.63 5.83 19.74 3.52 29.78-1.2 5.33-5.03 9.62-9.64 12.35-0.4-6.88 8.48-9.25 7.94-16.08 0.5099-9.13-2.18-18-4.32-26.77-3.12-11.93-7.11-23.72-12.85-34.66-2.93 2.95-4.78 6.71-7.15 10.09-11.98 18.06-24.43 35.8-36.95 53.49-5.84 8.22-11.79 16.36-17.68 24.55-8.68 11.72-17.32 23.47-26.43 34.87-4.25 5.17-8.24 10.68-13.57 14.82-3.27-2.15-6.16-4.78-8.63-7.8-3.74-4.25-7.29-8.6599-10.72-13.15-20.9-27.7-40.09-56.63-59.38-85.47-6.39-9.54-12.54-19.25-18.83-28.86-2.83-4.15-5.36-8.49-8.23-12.61 2.2401-2.81 4.69-5.44 7.35-7.85 2.75-0.91 5.51-1.84 8.31-2.6 29.3 41.8 58.56 83.66 88.08 125.31 17.55-24.59 34.79-49.41 52.13-74.14 11.82-17.19 24.18-34 35.89-51.26l0.5799-0.8302z" fill="#bdbfc1" stroke="#bdbfc1"/>
  <path d="m553 547.81c16.71-0.54 34.23 3.5 47.44 14.2 6.02 3.89 9.92 10.03 14.58 15.3-2.4 7.19 2.5 14.03 7.97 18.21 0.54-0.62 1.1-1.22 1.67-1.81 2.35 5.23 4.47 10.56 6.35 15.99 0.37 1.7 2.09 2.42 3.4 3.33-0.49 0.93-1.56 1.83-1.16 3.01 0.96 4.22 2.43 8.32 3.21 12.6-3.23-0.55-6.6-0.81-9.75 0.27-7.2 2.08-12.77 9.25-12.37 16.83-0.08 6.73 4.23 13.15 10.36 15.83 4.35 1.92 9.42 1.74 13.84 0.12 2.3199-0.62 2.44-3.5299 3.37-5.37 1.34 8.85 2.26 17.75 3.22 26.66 1.82 0.86 2.99 2.33 2.74 4.45l-1.37 0.26c-1.37 0.29-2.7 0.79-4.03 1.17-16.77 3.8099-33.69 6.88-50.42 10.85-2-15.92-4.65-31.92-10.41-46.96-1.25-3.3301-3.06-6.51-3.47-10.09-1.8101-16.07-4.67-32.02-8.72-47.67 8.93-4.69 11.63-17.53 5.35-25.4-3.6-5.29-10.3-7.89-16.55-6.65-1.68-3.58-3.5-7.1-5.26-10.63 0.08-1.51 0.06-3.01 0.01-4.5z" fill="#e6e7e8" stroke="#e6e7e8"/>
  <path d="m272.95 563.09c7.66-2.11 16.14 1.84 19.72 8.88-2.27 7-3.82 14.23-4.67 21.54-2.45 1.71-5.07 3.36-8.11 3.7-8.07 1.48-16.56-3.8-19.09-11.55-3.45-9.15 2.6-20.44 12.15-22.57z" fill="#d2d3d5" stroke="#d2d3d5"/>
  <path d="m558.25 562.94c6.25-1.2401 12.95 1.36 16.55 6.65 6.28 7.87 3.58 20.71-5.35 25.4-2.98-10.93-6.57-21.71-11.2-32.05z" fill="#d2d3d5" stroke="#d2d3d5"/>
  <path d="m336.09 566.84c6.29 9.61 12.44 19.32 18.83 28.86-8.69 4.73-20.35-0.9-23.23-10.06-2.39-6.54 0-13.72 4.4-18.8z" fill="#d2d3d5" stroke="#d2d3d5"/>
  <path d="m622.99 595.52c-5.47-4.18-10.37-11.02-7.97-18.21 1.37 1.98 2.77 3.98 4.49 5.7l-0.74-0.3101c2.05 3.61 4.16 7.21 5.89 11.01-0.57 0.5901-1.13 1.1901-1.67 1.8101z" fill="#d1d2d4" stroke="#d1d2d4"/>
  <path d="m270.49 629.55c5.23-2.41 11.21-1.49 16.17 1.13 0.32 9.24 1.42 18.42 2.61 27.59-7.4 7.12-20.77 5.9199-26.3-2.89-6.35-8.47-2.44-22.16 7.52-25.83z" fill="#d2d3d5" stroke="#d2d3d5"/>
  <path d="m347.01 628.17c9.39-0.91 18.41 7.13 18.55 16.58 0.78 9.41-7.56 18.22-16.94 18.26-9.24 0.4399-18.23-7.88-17.82-17.27-0.4-8.95 7.28-17.18 16.21-17.57z" fill="#d2d3d5" stroke="#d2d3d5"/>
  <path d="m473.65 652.43c5.89-8.1899 11.84-16.33 17.68-24.55 5.6 1.12 10.97 4.1 13.86 9.18 3.68 6.26 2.59 14.66-2.25 20-5.01 6.0901-14.53 7.75-21.33 3.78-3.74-1.58-5.81-5.2-7.96-8.41z" fill="#d2d3d5" stroke="#d2d3d5"/>
  <path d="m626.71 628.91c3.15-1.08 6.52-0.82 9.75-0.27 2.24 8.54 3.73 17.24 5.2 25.93 0.06 0.4401 0.19 1.3101 0.25 1.75-0.93 1.8401-1.05 4.75-3.37 5.37-4.42 1.62-9.4901 1.8-13.84-0.12-6.13-2.6799-10.44-9.1-10.36-15.83-0.4-7.58 5.17-14.75 12.37-16.83z" fill="#d2d3d5" stroke="#d2d3d5"/>
  <path d="m516.94 663.94c4.68-4.3999 9.27-9.0499 14.81-12.39-1.67 2.04-3.48 3.9501-5.41 5.7301-12.78 12.03-23.87 25.75-33.72 40.25 2.19 0.2699 4.4 0.59 6.62 0.7899-14.98 18.75-27.12 40.12-33.48 63.36-2.58 9.9301-3.89 20.72-0.64 30.65 1.93 5.9 6.21 10.76 11.5 13.93 2.19 2.76 4.92 5.0499 8.17 6.48-4.36 0.11-9.1801-0.4301-12.22-3.9401-3.59-4.0699-8.69-6.73-11.33-11.62-4.95-8.1-4.64-18.1-3.22-27.15 3.07-16.59 10.29-32.14 19-46.48 5.07-8.86 11.34-16.93 17.81-24.8-2.07-0.42-4.13-0.8301-6.18-1.23 0.7-1.24 1.39-2.4601 2.17-3.63 8.1-10.49 16.51-20.78 26.12-29.95z" fill="#bdbfc1" stroke="#bdbfc1"/>
  <path d="m557.84 654.68c1.18-0.35 2.37-0.6499 3.59-0.8999 1.95 3.9399 3.84 8.12 3.9 12.62-1.56 0.01-3.12 0.01-4.62-0.38l0.93-0.4501c-0.22-0.9399-0.44-1.87-0.67-2.7799-0.68-2.6801-1.64-5.28-2.93-7.7101l-0.2-0.4z" fill="#bdbfc1" stroke="#bdbfc1"/>
  <path d="m552.3 660.48c1.72-1.99 3.41-4.0699 5.7401-5.4 1.29 2.4301 2.25 5.03 2.93 7.7101-3.1601 0.5999-6.1801-0.4001-8.6701-2.3101z" fill="#d2d3d5" stroke="#d2d3d5"/>
  <path d="m550.72 663.5c0.35-1.1 0.75-2.1901 1.58-3.02 2.4901 1.91 5.51 2.91 8.67 2.3101 0.23 0.9099 0.45 1.84 0.67 2.7799l-0.93 0.4501c-3.27-1.1002-6.78-1.2401-9.99-2.5201z" fill="#eeeeef" stroke="#eeeeef"/>
  <path d="m542.51 682.42c8.22-2.08 17.05 1.65 21.86 8.4901 7.53 10.28 7.62 23.61 7.55 35.81 0.9399-0.33 1.89-0.66 2.84-0.98 2.63 8.73 2.05 18 2.04 27.01-0.66 15.47-2.56 31.21-8.5099 45.63-3.37 8.0599-9.04 16.22-18.08 18.27-0.41-0.53-0.82-1.03-1.24-1.5 1.4-0.54 2.86-1.05 3.94-2.15 5.33-5.03 8.61-11.79 11.12-18.57 3.64-10.47 5.63-21.45 6.71-32.47 1.09-11.26 1.1801-22.65-0.34-33.88-1.29-0.01-2.56-0.01-3.83 0.05 1.06-11.71 0.86-24.48-5.71-34.7-3.7301-6.6497-11.14-9.8397-18.35-11.01z" fill="#bdbfc1" stroke="#bdbfc1"/>
  <path d="m217.01 682.85c0.39-0.02 1.16-0.07 1.55-0.1l-0.18 0.75c-0.43 0.03-1.31 0.1-1.74 0.13l0.37-0.78z" enable-background="new " fill="#959596" opacity=".65" stroke="#959596"/>
  <path d="m221.15 689.06c14.52 3 29.04 5.99 43.51 9.1901 4.04 0.99 8.12 1.77 12.21 2.5499 0.21 4.5901 0.2 9.2001 0.14 13.81-0.42 3.8199-1.08 7.63-1.15 11.5l-0.02 0.16c-2.33 12.4-3.38 24.99-5.32 37.46-1.99 15.75-4.47 31.46-6.16 47.25-4.43 30.65-8.49 61.36-12.43 92.08-3.59 24.49-6.66 49.07-10.08 73.6-0.67 3.0699 1.3 5.7699 2.4 8.5 5.27 11.37 9.71 23.15 15.47 34.28 0.6 3.37 1.82 6.8901 0.64 10.3-0.78 2.9201-3.22 5.04-5.86 6.3099-5.74 1.76-12.17-0.7-15.69-5.4399-3.41-5.23-5.63-11.15-9.11-16.33 0.11 5.0399 0.5 10.08 0.78 15.13 0.54 12.13 1.5 24.26 1.84 36.4 0.27 7.5802-6.35 16.34-14.63 13.9-7.71-2.5598-9.57-11.64-9.89-18.77-3.38-0.2-7.05-0.36-9.76-2.66-5.23-4.1801-6.42-11.17-7.55-17.36-3.9-1.85-5.62-6.0299-5.53-10.15-0.39-11.27-0.73-22.54-1.18-33.8-0.53-8.4299-0.62-16.86-0.95-25.29 0.18-9.74-2.79-20.34 2.46-29.27 2.89-4.3101 2.88-9.6101 3.62-14.55 3.04-23.01 6.22-46.01 9.28-69.02 0.69-4.53 1.3-9.0699 1.55-13.64 3.47-20.77 5.76-41.75 8.74-62.61 3.1-22.54 6.06-45.1 9.17-67.64 1.11-8.6402 2.27-17.27 3.5-25.89z" fill="#f8b57e" stroke="#f8b57e"/>
  <path d="m592.05 699.71c16.73-3.97 33.65-7.04 50.42-10.85 2.24 17.21 4.58 34.41 6.89 51.61 2.4 16.86 4.41 33.78 6.97 50.62 4.02 32.25 8.68 64.43 12.87 96.66 2.25 15.98 4.4 31.98 6.49 47.98 0.26 3.74 3.03 6.5699 4.11 10.05 2.53 6.01 1.3 12.62 1.23 18.93-0.04 5.41-0.56 10.81-0.55 16.23-0.73 12.95-0.94 25.93-1.5 38.89-0.1801 4.97-0.6 9.9401-0.34 14.92 0 0.08-0.01 0.24-0.01 0.3199-1.48 2.3201-3.27 4.4601-5.66 5.89-0.98 6.0701-2.22 12.82-7.12 17.05-2.78 2.49-6.63 2.76-10.17 2.9399-0.03 0.5901-0.08 1.77-0.11 2.36-0.54 6.04-2.47 13.12-8.45 15.92-5.1 2.54-11.27-0.53-13.75-5.3-3.22-5.5499-2.03-12.16-1.68-18.22 0.7-13.97 1.45-27.94 2.26-41.91-2.91 4.9501-5.36 10.16-8.13 15.19-3.18 5.61-10.36 9.16-16.66 6.99-3.57-1.16-6.03-4.67-6.3-8.35-0.46-3.36 0.57-6.6801 1.94-9.6901 5.81-13.01 11.49-26.06 17.26-39.08-0.14-0.48-0.41-1.4301-0.55-1.91-2.42-21.75-5.76-43.4-8.57-65.1-3.95-28.85-7.59-57.75-11.77-86.57-2.6-21.57-5.83-43.07-8.53-64.63-1.57-10.32-3.01-20.66-4.2-31.02 0.43-1.38 0.82-2.75 1.17-4.12 1.7 0.49 3.41 1 5.13 1.52-0.8-9.1197-1.65-18.23-2.69-27.32z" fill="#f8b57e" stroke="#f8b57e"/>
  <path d="m264.66 698.25c4.08-2.0601 8.22-4.71 12.98-4.48 9.78-0.24 18.19 9.37 16.98 19.02-0.39 8.73-8.4 15.58-16.89 15.96-0.26-1.51-0.51-3.02-0.73-4.51 0.1-3.22-0.01-6.4301 0.01-9.63 0.06-4.61 0.07-9.22-0.14-13.81-4.09-0.7799-8.17-1.5599-12.21-2.5499z" fill="#d2d3d5" stroke="#d2d3d5"/>
  <path d="m343.56 694.5c10.28-3.64 22.15 5.45 22.01 16.16 0.27 5.9099-2.87 11.44-7.42 15.04-7.44-4.08-16.08-5.8199-24.51-4.9099-1.3-2.52-2.63-5.15-2.77-8.03-0.96-8.16 4.76-16.23 12.69-18.26z" fill="#d2d3d5" stroke="#d2d3d5"/>
  <path d="m413.56 694.65c3.68-1.4 7.65-0.5 11.46-0.3301 2.47 3.02 5.36 5.65 8.63 7.8 5.94 8.09 2.01 20.72-7.01 24.71-7.32 3.8201-17 1.23-21.69-5.47-3.44-4.4-4.07-10.48-2.46-15.71 1.57-5.2199 6.06-9.1699 11.07-11z" fill="#d2d3d5" stroke="#d2d3d5"/>
  <path d="m472.58 711.74c-0.68-9.75 8.45-18.86 18.24-17.85-0.78 1.1699-1.47 2.39-2.17 3.63 2.05 0.3999 4.11 0.8099 6.18 1.23-6.47 7.87-12.74 15.94-17.81 24.8-2.18-3.6199-4.59-7.4199-4.44-11.81z" fill="#d2d3d5" stroke="#d2d3d5"/>
  <path d="m543.98 707.01c1.77-7.7101 9.17-13.03 16.88-13.58 6.57 10.22 6.77 22.99 5.71 34.7-3.19 0.13-6.42 0.84-9.58 0.11-9.1599-1.87-15.63-12.17-13.01-21.23z" fill="#d2d3d5" stroke="#d2d3d5"/>
  <path d="m499.24 698.32c2.9301 0.1 5.87 0.02 8.81 0 0.41 2.6801 0.64 5.38 1.02 8.0801-0.75 0.51-1.47 1.0499-2.18 1.62-5.79 6.0399-10.29 13.2-14.73 20.27-6.51 11.52-12.65 23.49-15.7 36.46-2 6.64-2.93 13.81-1.38 20.65 0.73 3.36 3.65 5.4199 6.43 7.08-0.51 0.05-1.51 0.16-2.01 0.21 0.07 0.7201 0.22 2.16 0.29 2.88-3.5 2.3401-4.54 6.8-3.17 10.69-5.29-3.17-9.57-8.03-11.5-13.93-3.25-9.9299-1.94-20.72 0.64-30.65 6.36-23.24 18.5-44.61 33.48-63.36z" fill="#fefefe" stroke="#fefefe"/>
  <path d="m492.16 728.29c4.44-7.0701 8.94-14.23 14.73-20.27 2.41 9.3599-5.08 19.73-14.73 20.27z" fill="#d2d3d5" stroke="#d2d3d5"/>
  <path d="m574.76 725.74c1.45-2.3201 3.14-4.47 4.93-6.54 2.21 1.28 4.56 2.37 6.57 3.98 1.49 1.8 1.75 4.2201 2.18 6.4501 1.19 10.36 2.63 20.7 4.2 31.02-1.23-2.76-2.88-5.3-4.39-7.9-0.39 9.62-2.56 19.11-2.21 28.76-0.4901 0.37-1.4901 1.1-1.9901 1.47-1.54 8.86-4.37 17.52-8.69 25.44-3.15 6.4501-7.92 12.1-13.82 16.2-3.15 1.54-6.5 2.6-9.88 3.46-1.19-0.26-2.37-0.52-3.53-0.7899 3.07-2.63 4.07-7.0701 2.08-10.64 9.04-2.05 14.71-10.21 18.08-18.27 5.95-14.42 7.85-30.16 8.5099-45.63 0.0101-9.0102 0.5901-18.28-2.0399-27.01z" fill="#fefefe" stroke="#fefefe"/>
  <path d="m328.3 721.66c1.75-0.39 3.54-0.67 5.34-0.87 8.43-0.91 17.07 0.83 24.51 4.9099 7.46 4.0701 13.17 10.62 17.53 17.81 4.23 10.53 5.48 22.61 1.19 33.34-5.97 16.23-22.88 27.58-40.19 26.74-7.52-0.02-14.49-3.04-21.19-6.1-8.55-6.27-15.34-15.3-17.76-25.73-3.32-13.26 0.61-27.96 9.92-37.94 5.5199-5.94 12.79-10.18 20.65-12.16m4.49 14.43c-14.37 2.58-24.44 18.43-20.38 32.51 3.14 13.77 18.56 23.04 32.19 19.16 13.67-3.14 22.92-18.33 19.22-31.9-2.91-13.51-17.54-22.83-31.03-19.77z" fill="#619c9a" stroke="#619c9a"/>
  <path d="m332.79 736.09c13.49-3.0599 28.12 6.26 31.03 19.77 3.7 13.57-5.55 28.76-19.22 31.9-13.63 3.88-29.05-5.39-32.19-19.16-4.06-14.08 6.01-29.93 20.38-32.51m0.13 10.99c-6.77 2.27-11.45 9.4601-10.56 16.59 0.6 8.4 8.9 15.23 17.27 14.16 9.11-0.63 16.14-10.25 13.93-19.13-1.7199-9-12.03-14.8-20.64-11.62z" fill="#fefefe" stroke="#fefefe"/>
  <path d="m375.68 743.51c8.72 12.07 8.88 29.18 1.79 42.06-8.03 15.1-25.96 24.01-42.85 21.12-6.95-1.3199-14.38-3.6699-19.13-9.2 6.7 3.0599 13.67 6.08 21.19 6.1 17.31 0.84 34.22-10.51 40.19-26.74 4.29-10.73 3.04-22.81-1.19-33.34z" fill="#bdbfc1" stroke="#bdbfc1"/>
  <path d="m332.92 747.08c8.61-3.1799 18.92 2.62 20.64 11.62 2.21 8.88-4.82 18.5-13.93 19.13-8.37 1.0701-16.67-5.76-17.27-14.16-0.89-7.1299 3.79-14.32 10.56-16.59z" fill="#619c9a" stroke="#619c9a"/>
  <path d="m277.48 759.43c5.93 0.2201 12.04 3.2101 14.83 8.64 4.31 6.85 2.56 16.53-3.46 21.79-2.98 2.64-6.93 3.64-10.57 5-0.36 9.91-0.23 19.85 0.02 29.76 6.7401 1.25 13.21 5.23 15.48 12.01 4.13 10.71-4.85 23.45-16.29 23.25-0.14-3.75-0.31-7.49-0.4-11.23 0.02-1.26-0.17-2.53-0.41-3.7301 0.7401-19.55 0.29-39.18 0.32-58.76v-0.06c0.85-8.8599-0.07-17.79 0.48-26.67z" fill="#d2d3d5" stroke="#d2d3d5"/>
  <path d="m413.96 760.11c9.88-3.36 21.56 4.28 22.37 14.66 1.16 7.5-3.49 15.49-10.61 18.13-8.46 3.58-19.54-0.67-22.72-9.4501-4.09-9.0499 1.4-20.7 10.96-23.34z" fill="#d2d3d5" stroke="#d2d3d5"/>
  <path d="m476.46 764.75c3.81-2.3101 7.6-5.27 12.28-5.3101 7.64-0.7999 15.12 4.41 17.58 11.58 2.61 6.4299 0.3 14.14-4.74 18.72-2.31 1.84-5.04 3.04-7.51 4.65-4.65-1.42-10.14-1.77-14.28 1.1799-0.07-0.72-0.22-2.1599-0.29-2.88 0.5-0.05 1.5-0.1599 2.01-0.21-2.78-1.66-5.7-3.72-6.43-7.08-1.55-6.8399-0.62-14.01 1.38-20.65z" fill="#d2d3d5" stroke="#d2d3d5"/>
  <path d="m543.43 776.75c-0.13-8.77 7.36-17.02 16.21-17.3 3.87-0.33 7.59 1.02 11.1 2.51-1.08 11.02-3.0699 22-6.71 32.47-3.72-0.4399-7.71-0.1599-11.09-1.99-5.7-2.97-9.71-9.2-9.51-15.69z" fill="#d2d3d5" stroke="#d2d3d5"/>
  <path d="m479.79 795.57c4.14-2.95 9.63-2.6 14.28-1.1799 3.39 1.64 6.8 4.3199 7.52 8.25 0.76 3.73-1.71 7.37-4.98 8.98-3.62 2.01-7.8799 1.48-11.82 1.12-3.25-1.4301-5.98-3.72-8.17-6.48-1.3701-3.8901-0.3301-8.35 3.1699-10.69z" fill="#619c9a" stroke="#619c9a"/>
  <path d="m531.72 810.89c5.95-1.66 13.14-0.77 17.25 4.26 0.42 0.47 0.83 0.97 1.24 1.5 1.99 3.5699 0.99 8.01-2.08 10.64-2.93 2.37-6.77 2.5299-10.36 2.8199-5.12-0.97-10.81-3.77-12.05-9.3101-1.02-4.3998 2.34-8.0898 6-9.9098z" fill="#619c9a" stroke="#619c9a"/>
  <path d="m519.11 817.08c2.19-4.8099 7.84-5.98 12.61-6.1899-3.66 1.8199-7.02 5.51-6 9.9099 1.24 5.54 6.93 8.3401 12.05 9.3101-3.72 0.71-7.68 1.48-11.25-0.22-5.05-1.7401-9.82-7.3001-7.41-12.81z" fill="#bdbfc1" stroke="#bdbfc1"/>
  <path d="m346.01 825.14c9.75-1.61 19.36 6.6899 19.58 16.5 0.93 10.84-10.35 20.46-20.92 17.84-9.4-1.5699-15.72-11.87-13.48-21.02 1.55-6.98 7.68-12.56 14.82-13.32z" fill="#d2d3d5" stroke="#d2d3d5"/>
  <path d="m416.02 825.19c7.65-1.2999 16.05 2.9 19.01 10.2 4.6 9.5699-1.94 22.26-12.38 24.12-9.48 2.26-19.87-5.05-20.82-14.75-1.4-8.9501 5.22-18.13 14.19-19.57z" fill="#d2d3d5" stroke="#d2d3d5"/>
  <path d="m487.03 825.17c9.92-1.8799 20.35 6.38 20.34 16.57 0.68 10.38-9.48 19.76-19.78 17.93-9.72-1.1-17-11.37-14.69-20.9 1.39-6.88 7.28-12.34 14.13-13.6z" fill="#d2d3d5" stroke="#d2d3d5"/>
  <path d="m551.66 828.08c3.38-0.86 6.73-1.9199 9.88-3.46 6.12 1.08 12.49 4.11 14.95 10.21 4.39 8.37 0.32 19.61-8.29 23.39-7.69 3.77-18.02 0.71-22.22-6.8099-4.97-7.4501-2.58-19.32 5.68-23.33z" fill="#d2d3d5" stroke="#d2d3d5"/>
  <path d="m277.59 890.62c9.39 0 17.79 8.6899 17.1 18.14 0.02 9.02-8.16 16.31-16.88 16.92-1.59-5.84-0.45-11.94-0.77-17.89 0.48-5.72-0.16-11.49 0.55-17.17z" fill="#d2d3d5" stroke="#d2d3d5"/>
  <path d="m343.96 891.1c9.62-2.71 20.47 4.66 21.47 14.57 1.09 7.26-3.02 15.1-9.7599 18.12-8.42 4.1499-19.92 0.23-23.37-8.67-4.62-9.41 1.45-21.79 11.66-24.02z" fill="#d2d3d5" stroke="#d2d3d5"/>
  <path d="m414.9 891.1c3.99-0.9 8.32-0.53 12.02 1.28 5.3 2.76 8.8799 8.34 9.5099 14.25 0.66 7.71-4.23 15.71-11.79 17.91-8.69 3.12-19.39-1.9401-21.99-10.93-3.7099-9.2499 2.7601-20.33 12.25-22.51z" fill="#d2d3d5" stroke="#d2d3d5"/>
  <path d="m485.9 891.09c8.95-2.46 18.89 3.71 20.93 12.7 2.68 9.1599-3.89 19.53-13.21 21.3-9.26 2.27-19.85-4.67-20.85-14.29-1.59-8.68 4.5-17.86 13.13-19.71z" fill="#d2d3d5" stroke="#d2d3d5"/>
  <path d="m556.93 891.12c8.76-2.38 18.78 3.7 20.76 12.56 3.05 10.22-5.34 21.71-16.06 21.78-8.18 0.49-16.27-5.59-17.79-13.71-2.29-8.9598 4.05-18.85 13.09-20.63z" fill="#d2d3d5" stroke="#d2d3d5"/>
  <path d="m277.23 955.74c3.16 0.8199 6.45 1.47 9.29 3.1899 7.22 4.1101 10.11 14.02 6.76 21.53-1.01 2.8101-3.34 4.77-5.18 7.02 1.12 1.02 3.04 0.36 4.48 0.62 15-0.21 30.01 0.24 45.01-0.22-3-3.29-6.21-6.8-6.59-11.46-1.77-8.8999 4.72-18.31 13.66-19.81 9.6-2.36 20.04 5.21 20.81 15.07 1.01 6.25-2.29 12.15-6.82 16.19 12.32 0.49 24.65 0.04 36.98 0.21 4.25-0.05 8.56 0.36 12.76-0.5499-5.77-4.6001-8.37-12.79-5.72-19.77 2.66-8.41 12.53-13.43 20.93-10.89 8.97 1.96 14.86 12.21 12.36 20.99-0.66 4.09-3.8 6.9399-6.38 9.92 8.35 0.6399 16.75 0.1599 25.13 0.2999 8.24-0.2899 16.56 0.5801 24.76-0.51-9.25-6.38-9.09-21.65 0.15-27.94 8.76-7.16 23.65-2.35 26.8 8.45 2.8199 7.12-0.66 14.84-5.94 19.78 9.04 0.47 18.1 0.08 27.15 0.1899 7.56-0.24 15.21 0.65 22.72-0.5099-4.21-3.3-6.95-8.4701-6.94-13.84-0.28-8.84 7.33-17.17 16.24-17.41 10.59-1.1001 20.24 9.3799 18.44 19.83-0.47 4.6799-3.58 8.3099-6.56 11.69 4.82 0.4601 9.66 0.36 14.48 0.07l0.01 0.71c-25.76-0.42-51.52 0.09-77.28-0.04-28.7-0.3999-57.39 0.3301-86.08-0.1799-25.68 0.22-51.37 0.25-77.04 0.01-16.99 0.3099-33.98 0.11-50.97 0.15-5.9 0.23-11.81-0.65-17.69 0.05 0.01-7.86 0.14-15.72 0-23.57 0.03-3.1 0.24-6.1901 0.27-9.2701z" fill="#d2d3d5" stroke="#d2d3d5"/>
  <path d="m276.96 988.58c5.88-0.7 11.79 0.1801 17.69-0.05 16.99-0.04 33.98 0.1599 50.97-0.15 25.67 0.24 51.36 0.21 77.04-0.01 28.69 0.51 57.38-0.22 86.08 0.1799 25.76 0.13 51.52-0.38 77.28 0.04 0.01 9.8101 0.12 19.62-0.05 29.43-5.19 0.1499-10.38 0.05-15.57 0.05-39.52 0.05-79.04 0.13-118.56-0.05-3.51-1.56-7.49-0.4701-11.19-0.75-8.2-0.52-16.29 1.33-24.49 0.8801-38.5 0.1099-76.99 0.06-115.49 0.03-1.27-0.19-2.3701 0.13-3.28 0.9501l-0.71 0.6799c0.06-0.4199 0.17-1.26 0.23-1.6899l-0.29-1.09c-6.54-0.2301-13.09 0.11-19.62-0.3-0.02-9.3801 0.02-18.77-0.04-28.15z" fill="#bdbfc1" stroke="#bdbfc1"/>
  <path d="m277 1016.7c6.53 0.4101 13.08 0.07 19.62 0.3l0.29 1.09c-6.63 0.03-13.27 0.01-19.9 0.02l-0.01-1.41z" fill="#d2d5d7" stroke="#d2d5d7"/>
  <path d="m451.84 1018c39.52 0.18 79.04 0.1 118.56 0.05 0.01 37.42-0.17 74.84 0.09 112.25-0.3199 38.56-0.02 77.15-0.15 115.72 0.05 30.97 0.01 61.93 0.02 92.9-36.19 0-72.37 0.07-108.55 0-1.07-32.44-2.12-64.89-3.11-97.34-2.03-59.3-3.76-118.6-5.75-177.9-0.22-15.23-1.38-30.45-1.11-45.68z" fill="#5bbba6" stroke="#5bbba6"/>
  <path d="m297.39 1019.1c0.91-0.8201 2.01-1.1401 3.28-0.9501 38.5 0.03 76.99 0.08 115.49-0.03-2.17 74.79-4.75 149.57-7.09 224.36-1.03 32.12-2.02 64.24-3.05 96.36 3.89-0.01 7.79-0.04 11.69-0.1101l0.01 0.73c-23-0.9099-46.04-0.4-69.06-0.5299-17.03-0.03-34.05 0.07-51.08-0.03-0.16-30.76-0.02-61.53-0.07-92.29-0.05-75.84 0.1-151.68-0.12-227.51z" fill="#5bbba6" stroke="#5bbba6"/>
  <path d="m285.44 1338.9c4.05 0.06 8.09 0.06 12.14 0.03 17.03 0.1001 34.05 0 51.08 0.03 23.02 0.1301 46.06-0.38 69.06 0.5301 0.08 13.81 0.01 27.61 0.04 41.42-13.72-0.03-27.43-0.01-41.15-0.01h-56.36c-11.63 0-23.26-0.01-34.89 0.01 0.04-14.01-0.12-28.01 0.08-42.01z" fill="#3ba990" stroke="#3ba990"/>
  <path d="m448.92 1339 0.96-0.03c-0.01 13.95 0.04 27.91-0.03 41.87l-0.98-0.21c-0.13-13.87-0.28-27.76 0.05-41.63z" fill="#fff1f6" stroke="#fff1f6"/>
  <path d="m449.88 1338.9c3.97-0.04 7.94 0.03 11.93 0 36.18 0.07 72.36 0 108.55 0 4.02 0.01 8.05 0.01 12.09 0 0.02 13.97-0.04 27.94 0.03 41.92-11.63 0.09-23.26 0.01-34.89 0.04h-56.32c-13.81-0.07-27.62 0.13-41.42-0.09 0.07-13.96 0.02-27.92 0.03-41.87z" fill="#3ba990" stroke="#3ba990"/>
  <path d="m320.25 1380.9h56.36c0.05 5.7-0.1299 11.41 0.2 17.11-0.61 3.21-3.42 5.1899-5.72 7.2199-4.19 3.4901-9.86 5.44-15.29 4.25-5.83-1.2399-10.82-4.77-15.1-8.7599-6.24-5.4701-12.72-10.83-20.23-14.46-0.09-1.81-0.16-3.5901-0.22-5.36z" fill="#f8b57e" stroke="#f8b57e"/>
  <path d="m491.27 1380.9h56.32c-0.01 1.72-0.02 3.45 0 5.22-8.38 4.01-15.48 10.14-22.39 16.24-3.82 3.36-8.35 6.11-13.38 7.15-8.01 1.64-16.05-3.37-20.32-9.86-0.6-6.2399-0.28-12.51-0.23-18.75z" fill="#f8b57e" stroke="#f8b57e"/>
  <path d="m312.07 1383.7c2.89 0.48 5.74 1.27 8.4 2.5301 7.51 3.63 13.99 8.9899 20.23 14.46 4.28 3.9899 9.27 7.52 15.1 8.7599 5.4301 1.19 11.1-0.7599 15.29-4.25 2.3-2.0299 5.11-4.0099 5.72-7.2199 0.92-2 2.29-4.36 4.78-4.4501 2.77-0.36 4.79 2.4899 4.9 5.02 0.83 9.5 5.83 18.24 5.59 27.9-0.66 4.04-3.94 6.63-7.49 8.1801-17.47 9.3199-36.04 16.44-55.03 22-8.72 2.2599-16.98 6.0199-25.81 7.9099-23.11 5.65-48.13 3.73-69.79-6.26-2.79-1.3199-5.22-3.2899-7.13-5.6799-3.07-6.3301 0.68-13.2 4.53-18.24 7.07-8.48 17.26-13.5 27.17-17.89 6.44-2.5899 12.86-5.42 19.65-6.96 4.07 0.71 8.18 1.2599 12.29 1.7799 0.03 4.1501 0.01 8.3102 0.01 12.48 2.02-0.06 4.04-0.09 6.0699-0.1099-0.01-4.02-0.02-8.0299-0.02-12.03 3.27 0.8599 6.55 1.7 9.84 2.5299 0.04-3.49 0.11-6.9501 0.2-10.41 4.67-0.7102 9.36-1.3501 14.02-2.1801-5.21-3.25-10.6-6.1801-15.97-9.1401 2.6301-2.7799 5.1701-5.66 7.4501-8.7299z" fill="#555" stroke="#555"/>
  <path d="m547.59 1386.1c2.56-1.1401 5.26-1.87 7.99-2.49 2.35 3.0599 4.87 6 7.59 8.77-5.35 3.0299-10.77 5.95-15.99 9.2 4.71 0.85 9.47 1.4301 14.19 2.27 0.03 3.42 0.08 6.8599 0.12 10.31 3.25-0.84 6.51-1.6899 9.79-2.48-0.04 4.01-0.05 8.03-0.03 12.06 2.02-0.01 4.04-0.01 6.07 0.03 0.07-4.15 0.07-8.29 0.01-12.42 3.95-0.58 7.91-1.06 11.83-1.83 4.16 0.5299 7.99 2.3199 11.91 3.69 10 3.7999 19.97 8.1099 28.54 14.62 5.84 4.48 10.93 10.61 12.36 18 0.55 2.42-0.27 4.8599-1.23 7.0899-4.7599 5.6801-12.23 7.6601-18.96 9.9701-23.07 7.4299-48.39 5.86-71.06-2.2401-6.91-2.6999-14.15-4.3098-21.16-6.6699-17.02-5.47-33.65-12.26-49.27-20.97-3.6-1.7301-4.66-5.9-4.72-9.56 1.26-8.5901 4.87-16.65 5.79-25.3 0.19-2.5699 2.5-5.1899 5.26-4.5499 2.94 0.46 3.88 3.65 4.88 6.0301 4.27 6.4899 12.31 11.5 20.32 9.8599 5.03-1.04 9.56-3.79 13.38-7.15 6.9101-6.1 14.01-12.23 22.39-16.24z" fill="#555" stroke="#555"/>
  <path d="m304.62 1392.5c5.37 2.9601 10.76 5.8901 15.97 9.1401-4.66 0.83-9.35 1.47-14.02 2.1801-0.09 3.46-0.16 6.9199-0.2 10.41-3.29-0.83-6.57-1.6699-9.84-2.5299 0 4 0.01 8.0099 0.02 12.03-2.03 0.02-4.05 0.05-6.0699 0.11 0-4.1699 0.02-8.33-0.01-12.48-4.11-0.52-8.22-1.0699-12.29-1.7799 2.44-0.89 4.8-1.9701 7.18-2.9801 5.58 0.1801 11.13 0.8401 16.71 1.0701 0.2-1.37 0.4-2.73 0.62-4.0601-2.96-0.84-5.91-1.6699-8.88-2.4299 1.93-1.27 3.94-2.4401 5.68-3.9601 3.8 0.75 7.51 1.8601 11.24 2.91-2.82-1.9-5.8701-3.39-8.79-5.08 0.8998-0.8499 1.7998-1.7 2.6798-2.55z" fill="#fefefe" stroke="#fefefe"/>
  <path d="m547.18 1401.6c5.22-3.25 10.64-6.17 15.99-9.1999 0.86 0.8599 1.75 1.7199 2.68 2.5899-3 1.72-6.08 3.28-9 5.13 3.83-1.04 7.62-2.25 11.55-2.88 1.83 1.54 3.85 2.83 5.88 4.13-3.1 0.33-6.07 1.31-9.06 2.09 0.19 1.4001 0.36 2.79 0.58 4.24 5.5-0.4099 11-0.89 16.51-1.1699 2.34 0.84 4.6 1.9199 6.85 3.01-3.92 0.7699-7.88 1.25-11.83 1.83 0.06 4.13 0.06 8.27-0.01 12.42-2.03-0.04-4.05-0.04-6.07-0.03-0.02-4.03-0.01-8.05 0.03-12.06-3.28 0.79-6.54 1.6401-9.79 2.48-0.04-3.45-0.09-6.8898-0.12-10.31-4.7201-0.8401-9.4801-1.4201-14.19-2.2702z" fill="#fdfdfd" stroke="#fdfdfd"/>
  <path d="m299.49 1397.2c0.82-0.73 1.63-1.4701 2.45-2.17 2.92 1.69 5.97 3.18 8.79 5.08-3.73-1.0499-7.44-2.1601-11.24-2.9101z" fill="#3c2515" stroke="#3c2515"/>
  <path d="m556.85 1400.1c2.92-1.85 6-3.4101 9-5.13 0.83 0.7399 1.67 1.5 2.55 2.25-3.93 0.63-7.72 1.8399-11.55 2.88z" fill="#3c2515" stroke="#3c2515"/>
  <path d="m293.81 1401.1c2.97 0.76 5.92 1.5899 8.88 2.4299-0.22 1.3301-0.42 2.6901-0.62 4.0601-5.58-0.23-11.13-0.89-16.71-1.0701 2.97-1.5699 5.71-3.4999 8.45-5.4199z" fill="#565656" stroke="#565656"/>
  <path d="m565.22 1403.5c2.99-0.7799 5.96-1.7599 9.06-2.0899 2.64 1.76 5.21 3.66 8.03 5.16-5.51 0.2799-11.01 0.76-16.51 1.1699-0.22-1.4499-0.39-2.8399-0.58-4.2399z" fill="#555" stroke="#555"/>
  <path d="m471.03 1448.4c-2.56-8.42-0.38-17.83 4.54-24.98 0.06 3.66 1.12 7.83 4.72 9.56 15.62 8.71 32.25 15.5 49.27 20.97 7.01 2.3599 14.25 3.9699 21.16 6.6699 22.67 8.1001 47.99 9.67 71.06 2.2401 6.73-2.3101 14.2-4.29 18.96-9.9701 4.71 3.64 8.52 10.61 5.4301 16.4-3.46 5.33-9.89 7.51-15.76 9.02-19.87 4.46-40.49 7.5999-60.81 4.49-12.43-1.65-24.32-5.77-35.99-10.17-17.99-7.17-36.03-14.57-55.02-18.66-3.2-0.61-6.58-2.2102-7.56-5.5701z" fill="#e0d4c8" stroke="#e0d4c8"/>
  <path d="m392.08 1426.5c0.38-0.1399 1.16-0.4301 1.54-0.5698 3.78 6.4099 5.19 14.25 3.55 21.55-0.9901 4.04-5.13 6.0101-8.86 6.8102-13.58 2.8599-26.63 7.6499-39.54 12.62-15.38 6.1099-30.79 12.55-47.16 15.46-16.41 2.9099-33.27 1.9099-49.6-1.0501-8.48-1.6898-17.38-2.63-25.05-6.9299-3.29-1.73-5.87-4.91-6.4-8.63-0.18-5.12 2.83-9.6 6.27-13.11 1.91 2.3899 4.34 4.3599 7.13 5.6799 21.66 9.9899 46.68 11.91 69.79 6.2599 8.83-1.89 17.09-5.65 25.81-7.9099 18.99-5.56 37.56-12.68 55.03-22 3.55-1.5501 6.83-4.1402 7.49-8.1802z" fill="#e0d4c8" stroke="#e0d4c8"/>
  <path d="m365.5 1542.5c21.82 0.4699 43.65 0.9899 65.48 1.1899l-0.74 0.03h-57.1c-2.5-0.6801-5.05-1.17-7.64-1.2201z" enable-background="new " fill="#1c1c1c" opacity=".13" stroke="#1c1c1c"/>
 </g>
</svg>
