<svg width="1512" height="773" viewBox="0 0 1512 773" fill="none" xmlns="http://www.w3.org/2000/svg" xmlns:xlink="http://www.w3.org/1999/xlink">
<mask id="mask0_114_888" style="mask-type:alpha" maskUnits="userSpaceOnUse" x="0" y="0" width="1512" height="773">
<path d="M0 0H1512V773H0V0Z" fill="#D9D9D9"/>
</mask>
<g fill="None" fill-opacity="0.0" stroke="#000000" stroke-opacity="0.00" stroke-width="0.3"><path d="
M 0.00 1144.00 
L 2237.00 1144.00
L 2237.00 0.00
L 0.00 0.00
L 0.00 1144.00
M 1893.00 322.00 
C 1904.47 324.57 1915.93 326.48 1926.00 333.00
C 1927.14 333.74 1928.10 335.43 1929.00 336.00
C 1930.45 336.07 1930.13 336.09 1931.00 337.00
C 1937.16 340.60 1941.53 345.56 1946.00 351.00
C 1988.92 403.24 1964.39 477.44 1959.00 538.00
C 1963.13 538.36 1963.28 544.03 1962.00 547.00
C 1960.85 554.92 1957.78 562.16 1955.00 569.00
C 1954.62 579.34 1946.70 589.09 1942.08 598.08 C 1937.45 607.06 1931.57 615.22 1926.08 624.08 C 1920.60 632.94 1912.01 638.65 1903.31 644.31 C 1894.60 649.96 1881.67 649.43 1875.23 658.23 C 1868.79 667.03 1860.47 672.28 1852.30 678.30 C 1844.14 684.33 1853.96 700.53 1857.32 708.68 C 1860.69 716.83 1869.28 724.92 1876.25 731.75 C 1883.22 738.58 1891.49 745.54 1898.90 752.10 C 1906.31 758.66 1912.81 765.26 1919.25 773.75 C 1925.69 782.24 1929.57 793.62 1932.00 804.00
C 1932.33 805.42 1932.92 807.01 1933.00 809.00
C 1934.07 835.92 1917.26 856.39 1892.32 865.32 C 1867.38 874.26 1831.89 871.46 1806.00 865.00
C 1817.08 884.97 1814.56 910.62 1799.25 927.25 C 1783.94 943.88 1770.06 952.30 1747.77 959.77 C 1725.48 967.25 1698.32 968.03 1673.00 969.00 C 1647.68 969.97 1617.95 966.79 1592.99 965.01 C 1568.03 963.23 1545.71 954.63 1521.00 955.00
C 1517.46 968.02 1510.12 976.57 1499.30 985.30 C 1488.49 994.04 1475.63 997.76 1461.33 999.33 C 1447.03 1000.90 1427.73 998.75 1414.32 994.68 C 1400.91 990.61 1391.03 984.89 1379.75 977.25 C 1368.48 969.61 1360.83 962.30 1353.70 950.30 C 1346.56 938.31 1342.23 923.19 1344.98 908.98 C 1347.73 894.77 1354.70 885.84 1365.23 876.23 C 1375.76 866.63 1389.37 867.24 1402.22 861.22 C 1415.07 855.20 1433.58 855.41 1447.67 858.33 C 1461.77 861.24 1471.19 867.90 1482.25 875.75 C 1493.31 883.61 1494.73 900.94 1509.00 902.00
C 1503.36 872.35 1520.61 848.66 1545.08 834.08 C 1569.54 819.50 1600.90 812.87 1630.00 812.00
C 1631.75 811.83 1634.60 811.05 1637.00 811.00
C 1649.29 810.75 1661.71 810.75 1674.00 811.00
C 1698.95 811.50 1724.48 817.20 1748.07 822.93 C 1771.67 828.65 1791.82 837.87 1816.01 841.99 C 1840.20 846.12 1866.50 851.41 1890.03 840.03 C 1913.55 828.64 1910.82 802.00 1896.00 785.00
C 1893.03 781.59 1890.21 776.69 1887.00 774.00
C 1869.72 765.36 1856.12 746.89 1844.00 733.00
C 1843.35 732.26 1842.61 731.83 1842.00 731.00
C 1835.78 722.47 1830.92 714.23 1828.23 703.77 C 1825.53 693.31 1824.44 680.10 1811.93 679.07 C 1799.42 678.05 1797.16 667.45 1788.75 661.25 C 1780.35 655.05 1769.58 653.24 1760.31 648.70 C 1751.03 644.15 1746.71 634.74 1740.25 627.75 C 1733.78 620.77 1732.10 606.66 1721.32 605.68 C 1710.55 604.70 1698.88 596.65 1688.00 597.00
C 1688.12 596.95 1685.96 599.05 1686.00 599.00
C 1675.72 612.12 1674.60 631.25 1668.68 646.68 C 1662.76 662.10 1659.95 680.07 1650.00 694.00
C 1647.20 697.92 1644.44 700.54 1641.00 703.00
C 1617.55 719.75 1596.06 699.98 1583.25 679.75 C 1570.43 659.53 1561.05 639.01 1549.00 619.00
C 1545.82 625.34 1541.16 630.68 1538.00 637.00
C 1536.78 638.98 1535.42 640.40 1534.00 642.00
C 1521.42 656.15 1506.51 647.82 1508.00 630.00 C 1509.49 612.18 1507.50 595.09 1510.00 578.00 C 1512.50 560.91 1511.01 544.80 1514.00 528.00
C 1508.41 539.05 1507.17 551.20 1503.22 563.22 C 1499.27 575.24 1498.16 588.05 1494.22 600.22 C 1490.28 612.39 1488.47 624.06 1484.67 636.67 C 1480.87 649.28 1480.40 660.04 1475.07 673.07 C 1469.74 686.11 1452.52 675.88 1453.02 662.98 C 1453.53 650.07 1447.09 636.49 1446.00 624.00 C 1444.91 611.51 1438.05 600.75 1435.00 589.00
C 1422.41 597.64 1425.80 622.15 1409.92 628.92 C 1394.04 635.69 1368.01 626.63 1351.00 627.00
C 1348.89 626.26 1348.37 625.81 1347.00 624.00
C 1340.58 615.51 1347.16 603.45 1358.01 604.01 C 1368.86 604.57 1382.36 605.10 1393.00 606.00 C 1403.65 606.90 1405.36 592.60 1409.00 585.00
C 1409.53 583.90 1410.51 582.88 1411.00 582.00
C 1415.71 566.48 1433.21 547.52 1446.92 564.08 C 1460.62 580.64 1460.34 594.30 1467.00 613.00
C 1469.84 600.49 1475.28 586.71 1477.98 573.98 C 1480.68 561.24 1486.88 547.39 1488.93 534.93 C 1490.97 522.47 1498.11 507.13 1499.78 495.78 C 1501.44 484.43 1513.10 464.39 1525.08 474.92 C 1537.06 485.45 1530.64 501.82 1534.00 516.00 C 1537.35 530.18 1531.48 551.20 1534.00 566.00
C 1534.00 570.62 1533.24 574.50 1533.00 579.00
C 1532.63 585.86 1530.83 593.78 1533.00 600.00
C 1534.61 598.75 1535.36 596.17 1537.00 595.00
C 1538.53 593.08 1539.95 591.32 1542.00 590.00
C 1555.20 581.48 1565.88 595.29 1570.00 606.00
C 1570.64 607.09 1571.17 606.98 1572.00 609.00
C 1577.92 623.44 1583.86 632.44 1591.31 646.70 C 1598.75 660.95 1603.80 667.43 1613.25 682.75 C 1622.70 698.06 1633.15 679.12 1636.99 664.99 C 1640.83 650.86 1647.06 635.73 1650.93 620.93 C 1654.80 606.12 1659.59 594.49 1669.25 581.25 C 1678.91 568.01 1700.05 574.40 1713.00 579.00
C 1710.67 572.24 1707.33 565.78 1705.00 559.00
C 1702.92 553.69 1704.74 552.91 1705.00 548.00
C 1695.94 528.41 1692.35 506.44 1685.02 485.98 C 1677.70 465.51 1669.00 442.54 1669.00 420.00
C 1668.48 414.65 1668.49 408.28 1669.00 403.00
C 1669.00 384.35 1676.03 371.42 1686.30 357.30 C 1696.56 343.17 1712.35 338.90 1728.00 335.00
C 1728.80 334.80 1729.69 334.11 1731.00 334.00
C 1742.28 333.03 1755.40 335.90 1764.70 340.30 C 1774.00 344.71 1787.16 338.38 1796.23 345.77 C 1805.30 353.16 1809.17 363.36 1806.22 374.22 C 1803.27 385.08 1794.54 392.44 1783.00 392.00 C 1771.46 391.56 1764.82 381.17 1763.00 371.00
C 1762.69 369.25 1761.18 366.42 1762.00 364.00
C 1749.40 353.34 1726.36 357.14 1714.11 366.11 C 1701.85 375.08 1693.01 391.49 1693.00 407.00
C 1693.00 409.00 1693.00 411.00 1693.00 413.00
C 1693.00 431.10 1699.78 448.95 1704.32 465.68 C 1708.87 482.41 1714.97 498.75 1719.98 515.02 C 1724.98 531.30 1731.64 546.72 1737.78 562.22 C 1743.91 577.72 1751.02 589.86 1761.75 602.25 C 1772.49 614.64 1797.17 608.57 1807.25 621.75 C 1817.33 634.93 1833.79 647.31 1844.25 630.25 C 1854.72 613.19 1868.73 612.14 1885.07 607.07 C 1901.42 602.00 1911.57 591.67 1919.31 576.31 C 1927.04 560.94 1933.41 545.66 1935.92 527.92 C 1938.44 510.19 1941.61 488.21 1943.00 470.00
C 1943.17 467.72 1943.84 464.61 1944.00 463.00
C 1943.02 452.85 1946.00 442.42 1946.00 432.00
C 1946.00 427.00 1946.00 422.00 1946.00 417.00
C 1946.00 373.30 1904.37 329.36 1859.00 350.00
C 1863.07 371.05 1834.41 386.00 1821.00 369.00
C 1819.83 367.92 1818.87 367.38 1818.00 366.00
C 1805.40 346.03 1827.52 317.12 1850.00 330.00
C 1857.09 323.98 1867.71 322.50 1877.00 321.00
C 1881.16 320.72 1885.84 320.64 1890.00 321.00
C 1891.35 321.12 1892.20 321.82 1893.00 322.00 Z"/>
</g>
<g fill="None" fill-opacity="0.0" stroke="#0971BF" stroke-opacity="0.94" stroke-width="0.3"><path d="
M 1818.00 366.00 
C 1818.36 366.45 1821.25 369.32 1821.00 369.00
C 1834.41 386.00 1863.07 371.05 1859.00 350.00
C 1904.37 329.36 1946.00 373.30 1946.00 417.00
C 1946.00 416.96 1947.00 417.00 1947.00 417.00
C 1949.47 419.39 1948.04 427.45 1947.00 430.00
C 1946.86 431.13 1946.17 431.36 1946.00 432.00
C 1946.00 442.42 1943.02 452.85 1944.00 463.00
C 1944.34 466.49 1943.68 467.68 1943.00 470.00
C 1941.61 488.21 1938.44 510.19 1935.92 527.92 C 1933.41 545.66 1927.04 560.94 1919.31 576.31 C 1911.57 591.67 1901.42 602.00 1885.07 607.07 C 1868.73 612.14 1854.72 613.19 1844.25 630.25 C 1833.79 647.31 1817.33 634.93 1807.25 621.75 C 1797.17 608.57 1772.49 614.64 1761.75 602.25 C 1751.02 589.86 1743.91 577.72 1737.78 562.22 C 1731.64 546.72 1724.98 531.30 1719.98 515.02 C 1714.97 498.75 1708.87 482.41 1704.32 465.68 C 1699.78 448.95 1693.00 431.10 1693.00 413.00
C 1693.14 413.55 1691.06 413.62 1691.01 410.99 C 1690.96 408.35 1692.83 407.80 1693.00 407.00
C 1693.01 391.49 1701.85 375.08 1714.11 366.11 C 1726.36 357.14 1749.40 353.34 1762.00 364.00
C 1765.00 366.54 1763.10 367.63 1763.00 371.00
C 1764.82 381.17 1771.46 391.56 1783.00 392.00 C 1794.54 392.44 1803.27 385.08 1806.22 374.22 C 1809.17 363.36 1805.30 353.16 1796.23 345.77 C 1787.16 338.38 1774.00 344.71 1764.70 340.30 C 1755.40 335.90 1742.28 333.03 1731.00 334.00
C 1730.10 334.25 1729.60 334.94 1728.00 335.00
C 1712.35 338.90 1696.56 343.17 1686.30 357.30 C 1676.03 371.42 1669.00 384.35 1669.00 403.00
C 1669.00 408.67 1669.00 414.33 1669.00 420.00
C 1669.00 442.54 1677.70 465.51 1685.02 485.98 C 1692.35 506.44 1695.94 528.41 1705.00 548.00
C 1706.31 550.84 1709.53 553.80 1708.00 558.00
C 1706.72 557.47 1706.14 558.97 1705.00 559.00
C 1707.33 565.78 1710.67 572.24 1713.00 579.00
C 1700.05 574.40 1678.91 568.01 1669.25 581.25 C 1659.59 594.49 1654.80 606.12 1650.93 620.93 C 1647.06 635.73 1640.83 650.86 1636.99 664.99 C 1633.15 679.12 1622.70 698.06 1613.25 682.75 C 1603.80 667.43 1598.75 660.95 1591.31 646.70 C 1583.86 632.44 1577.92 623.44 1572.00 609.00
C 1571.07 607.72 1570.84 608.17 1570.00 606.00
C 1565.88 595.29 1555.20 581.48 1542.00 590.00
C 1542.00 590.00 1537.04 594.96 1537.00 595.00
C 1535.36 596.17 1534.61 598.75 1533.00 600.00
C 1530.83 593.78 1532.63 585.86 1533.00 579.00
C 1532.54 574.22 1533.26 570.56 1534.00 566.00
C 1531.48 551.20 1537.35 530.18 1534.00 516.00 C 1530.64 501.82 1537.06 485.45 1525.08 474.92 C 1513.10 464.39 1501.44 484.43 1499.78 495.78 C 1498.11 507.13 1490.97 522.47 1488.93 534.93 C 1486.88 547.39 1480.68 561.24 1477.98 573.98 C 1475.28 586.71 1469.84 600.49 1467.00 613.00
C 1460.34 594.30 1460.62 580.64 1446.92 564.08 C 1433.21 547.52 1415.71 566.48 1411.00 582.00
C 1410.21 584.62 1410.25 583.38 1409.00 585.00
C 1405.36 592.60 1403.65 606.90 1393.00 606.00 C 1382.36 605.10 1368.86 604.57 1358.01 604.01 C 1347.16 603.45 1340.58 615.51 1347.00 624.00
C 1347.51 624.51 1350.53 626.79 1351.00 627.00
C 1368.01 626.63 1394.04 635.69 1409.92 628.92 C 1425.80 622.15 1422.41 597.64 1435.00 589.00
C 1438.05 600.75 1444.91 611.51 1446.00 624.00 C 1447.09 636.49 1453.53 650.07 1453.02 662.98 C 1452.52 675.88 1469.74 686.11 1475.07 673.07 C 1480.40 660.04 1480.87 649.28 1484.67 636.67 C 1488.47 624.06 1490.28 612.39 1494.22 600.22 C 1498.16 588.05 1499.27 575.24 1503.22 563.22 C 1507.17 551.20 1508.41 539.05 1514.00 528.00
C 1511.01 544.80 1512.50 560.91 1510.00 578.00 C 1507.50 595.09 1509.49 612.18 1508.00 630.00 C 1506.51 647.82 1521.42 656.15 1534.00 642.00
C 1534.43 641.33 1536.68 638.58 1538.00 637.00
C 1541.16 630.68 1545.82 625.34 1549.00 619.00
C 1561.05 639.01 1570.43 659.53 1583.25 679.75 C 1596.06 699.98 1617.55 719.75 1641.00 703.00
C 1642.70 700.94 1647.35 696.60 1650.00 694.00
C 1659.95 680.07 1662.76 662.10 1668.68 646.68 C 1674.60 631.25 1675.72 612.12 1686.00 599.00
C 1686.61 597.75 1685.89 597.07 1688.00 597.00
C 1698.88 596.65 1710.55 604.70 1721.32 605.68 C 1732.10 606.66 1733.78 620.77 1740.25 627.75 C 1746.71 634.74 1751.03 644.15 1760.31 648.70 C 1769.58 653.24 1780.35 655.05 1788.75 661.25 C 1797.16 667.45 1799.42 678.05 1811.93 679.07 C 1824.44 680.10 1825.53 693.31 1828.23 703.77 C 1830.92 714.23 1835.78 722.47 1842.00 731.00
C 1843.30 732.25 1843.63 732.28 1844.00 733.00
C 1856.12 746.89 1869.72 765.36 1887.00 774.00
C 1891.91 776.46 1893.98 781.40 1896.00 785.00
C 1910.82 802.00 1913.55 828.64 1890.03 840.03 C 1866.50 851.41 1840.20 846.12 1816.01 841.99 C 1791.82 837.87 1771.67 828.65 1748.07 822.93 C 1724.48 817.20 1698.95 811.50 1674.00 811.00
C 1674.05 811.00 1674.00 812.00 1674.00 812.00
C 1669.87 816.27 1658.05 811.59 1652.00 813.00 C 1645.95 814.41 1636.04 812.48 1630.00 812.00
C 1600.90 812.87 1569.54 819.50 1545.08 834.08 C 1520.61 848.66 1503.36 872.35 1509.00 902.00
C 1494.73 900.94 1493.31 883.61 1482.25 875.75 C 1471.19 867.90 1461.77 861.24 1447.67 858.33 C 1433.58 855.41 1415.07 855.20 1402.22 861.22 C 1389.37 867.24 1375.76 866.63 1365.23 876.23 C 1354.70 885.84 1347.73 894.77 1344.98 908.98 C 1342.23 923.19 1346.56 938.31 1353.70 950.30 C 1360.83 962.30 1368.48 969.61 1379.75 977.25 C 1391.03 984.89 1400.91 990.61 1414.32 994.68 C 1427.73 998.75 1447.03 1000.90 1461.33 999.33 C 1475.63 997.76 1488.49 994.04 1499.30 985.30 C 1510.12 976.57 1517.46 968.02 1521.00 955.00
C 1545.71 954.63 1568.03 963.23 1592.99 965.01 C 1617.95 966.79 1647.68 969.97 1673.00 969.00 C 1698.32 968.03 1725.48 967.25 1747.77 959.77 C 1770.06 952.30 1783.94 943.88 1799.25 927.25 C 1814.56 910.62 1817.08 884.97 1806.00 865.00
C 1831.89 871.46 1867.38 874.26 1892.32 865.32 C 1917.26 856.39 1934.07 835.92 1933.00 809.00
C 1933.18 809.72 1930.81 809.81 1931.03 807.96 C 1931.25 806.10 1932.01 804.89 1932.00 804.00
C 1929.57 793.62 1925.69 782.24 1919.25 773.75 C 1912.81 765.26 1906.31 758.66 1898.90 752.10 C 1891.49 745.54 1883.22 738.58 1876.25 731.75 C 1869.28 724.92 1860.69 716.83 1857.32 708.68 C 1853.96 700.53 1844.14 684.33 1852.30 678.30 C 1860.47 672.28 1868.79 667.03 1875.23 658.23 C 1881.67 649.43 1894.60 649.96 1903.31 644.31 C 1912.01 638.65 1920.60 632.94 1926.08 624.08 C 1931.57 615.22 1937.45 607.06 1942.08 598.08 C 1946.70 589.09 1954.62 579.34 1955.00 569.00
C 1955.05 567.76 1954.72 566.21 1955.00 565.00
C 1953.56 558.00 1956.45 547.20 1959.00 539.00
C 1962.29 540.21 1960.56 544.37 1961.00 547.00
C 1961.04 546.87 1962.00 547.00 1962.00 547.00
C 1963.28 544.03 1963.13 538.36 1959.00 538.00
C 1964.39 477.44 1988.92 403.24 1946.00 351.00
C 1941.82 347.86 1935.63 341.85 1931.00 337.00
C 1930.13 336.09 1930.45 336.07 1929.00 336.00
C 1926.58 335.89 1927.85 334.58 1926.00 333.00
C 1915.93 326.48 1904.47 324.57 1893.00 322.00
C 1889.51 322.21 1880.13 325.22 1877.00 322.00
C 1876.75 321.74 1877.00 321.00 1877.00 321.00
C 1867.71 322.50 1857.09 323.98 1850.00 330.00
C 1827.52 317.12 1805.40 346.03 1818.00 366.00
M 1839.00 343.00 
C 1848.49 345.18 1843.83 364.49 1834.00 361.00 C 1824.17 357.51 1830.72 341.10 1839.00 343.00
M 1786.00 357.00 
C 1795.55 358.89 1793.43 378.08 1783.00 376.00 C 1772.57 373.92 1776.54 355.12 1786.00 357.00
M 1899.00 621.00 
C 1907.71 624.26 1895.89 632.45 1890.31 632.31 C 1884.72 632.16 1876.60 637.08 1871.30 640.30 C 1866.01 643.53 1863.54 649.79 1857.75 653.75 C 1851.97 657.72 1850.98 664.11 1841.92 664.92 C 1832.87 665.74 1829.33 667.41 1817.93 664.07 C 1806.53 660.73 1797.32 646.63 1787.31 640.70 C 1777.29 634.76 1776.52 638.95 1766.78 634.22 C 1757.03 629.50 1768.26 622.64 1775.02 625.98 C 1781.79 629.31 1789.59 627.86 1795.23 632.77 C 1800.87 637.68 1804.54 639.93 1809.25 645.75 C 1813.96 651.58 1820.05 654.27 1827.00 655.00 C 1833.95 655.73 1841.98 655.25 1847.23 650.23 C 1852.48 645.21 1855.30 640.94 1860.25 636.25 C 1865.20 631.55 1870.75 627.44 1877.03 626.02 C 1883.30 624.61 1892.38 618.52 1899.00 621.00
M 1678.00 836.00 
C 1697.01 837.51 1715.55 841.25 1734.00 845.00
C 1738.90 846.00 1743.75 847.98 1748.00 850.00
C 1748.73 850.19 1750.36 850.69 1751.00 851.00
C 1753.86 851.55 1756.93 852.90 1760.00 855.00
C 1761.47 856.01 1762.45 856.35 1764.00 857.00
C 1775.77 861.92 1788.59 874.47 1789.00 888.00
C 1789.33 898.88 1782.95 905.31 1779.00 914.00
C 1777.75 916.75 1776.62 916.72 1774.00 918.00
C 1770.45 921.16 1766.06 923.71 1762.00 926.00
C 1757.60 929.14 1753.42 931.98 1749.00 933.00
C 1721.07 944.50 1683.28 947.48 1652.00 945.00
C 1647.42 945.44 1644.23 944.82 1640.00 944.00
C 1637.04 944.00 1633.95 944.26 1631.00 944.00
C 1629.52 944.14 1628.24 944.46 1626.00 945.00 C 1623.76 945.53 1622.57 943.15 1622.00 943.00
C 1615.32 942.60 1606.45 941.44 1600.00 941.00 C 1593.55 940.56 1582.82 940.73 1577.78 938.22 C 1572.73 935.72 1558.42 939.10 1558.03 932.97 C 1557.64 926.83 1559.59 918.52 1553.92 914.08 C 1548.24 909.65 1542.42 909.07 1537.31 905.69 C 1532.20 902.32 1530.73 892.61 1531.00 887.00
C 1531.34 880.10 1535.71 874.83 1540.00 870.00
C 1569.70 836.58 1622.58 835.00 1665.00 835.00
C 1669.52 835.00 1674.18 835.26 1678.00 836.00
M 1468.00 929.00 
C 1447.58 939.78 1409.93 927.94 1404.00 904.00
C 1396.80 874.95 1435.66 877.10 1453.02 882.98 C 1470.39 888.86 1490.98 916.87 1468.00 929.00
M 1382.00 910.00 
C 1384.44 918.37 1389.90 925.05 1396.25 931.75 C 1402.60 938.46 1409.04 943.73 1417.70 947.31 C 1426.36 950.88 1437.03 954.87 1447.02 954.98 C 1457.02 955.09 1469.66 955.19 1478.23 949.23 C 1486.80 943.27 1494.15 943.02 1504.00 948.00
C 1496.79 979.27 1455.57 981.11 1429.98 976.02 C 1404.38 970.94 1379.86 955.79 1369.00 931.00
C 1363.55 917.44 1367.30 897.96 1381.00 891.00
C 1381.11 897.40 1380.47 903.95 1382.00 910.00
M 1529.00 926.00 
C 1523.75 926.07 1518.76 923.44 1513.93 922.07 C 1509.09 920.71 1499.49 922.48 1501.00 915.00
C 1505.83 916.31 1511.51 917.42 1516.22 918.78 C 1520.94 920.14 1529.39 919.80 1529.00 926.00 Z"/>
</g>
<g fill="None" fill-opacity="0.0" stroke="#8AA6BC" stroke-opacity="0.03" stroke-width="0.3"><path d="
M 1877.00 322.00 
C 1881.40 322.40 1886.42 321.18 1890.00 321.00
C 1885.84 320.64 1881.16 320.72 1877.00 321.00
C 1877.00 321.00 1876.75 321.74 1877.00 322.00 Z"/>
</g>
<g fill="None" fill-opacity="0.0" stroke="#0873BD" stroke-opacity="0.58" stroke-width="0.3"><path d="
M 1877.00 322.00 
C 1880.13 325.22 1889.51 322.21 1893.00 322.00
C 1892.20 321.82 1891.35 321.12 1890.00 321.00
C 1886.42 321.18 1881.40 322.40 1877.00 322.00 Z"/>
</g>
<g fill="None" fill-opacity="0.0" stroke="#3B90B7" stroke-opacity="0.26" stroke-width="0.3"><path d="
M 1929.00 336.00 
C 1928.10 335.43 1927.14 333.74 1926.00 333.00
C 1927.85 334.58 1926.58 335.89 1929.00 336.00 Z"/>
</g>
<g fill="None" fill-opacity="0.0" stroke="#5188A6" stroke-opacity="0.34" stroke-width="0.3"><path d="
M 1728.00 335.00 
C 1729.60 334.94 1730.10 334.25 1731.00 334.00
C 1729.69 334.11 1728.80 334.80 1728.00 335.00 Z"/>
</g>
<g fill="None" fill-opacity="0.0" stroke="#2B82C0" stroke-opacity="0.33" stroke-width="0.3"><path d="
M 1946.00 351.00 
C 1941.53 345.56 1937.16 340.60 1931.00 337.00
C 1935.63 341.85 1941.82 347.86 1946.00 351.00 Z"/>
</g>
<g fill="None" fill-opacity="0.0" stroke="#9DEDF5" stroke-opacity="1.00" stroke-width="0.3"><path d="
M 1839.00 343.00 
C 1830.72 341.10 1824.17 357.51 1834.00 361.00 C 1843.83 364.49 1848.49 345.18 1839.00 343.00 Z"/>
</g>
<g fill="None" fill-opacity="0.0" stroke="#A0EFF7" stroke-opacity="1.00" stroke-width="0.3"><path d="
M 1786.00 357.00 
C 1776.54 355.12 1772.57 373.92 1783.00 376.00 C 1793.43 378.08 1795.55 358.89 1786.00 357.00 Z"/>
</g>
<g fill="None" fill-opacity="0.0" stroke="#5994B4" stroke-opacity="0.23" stroke-width="0.3"><path d="
M 1763.00 371.00 
C 1763.10 367.63 1765.00 366.54 1762.00 364.00
C 1761.18 366.42 1762.69 369.25 1763.00 371.00 Z"/>
</g>
<g fill="None" fill-opacity="0.0" stroke="#477CA2" stroke-opacity="0.31" stroke-width="0.3"><path d="
M 1821.00 369.00 
C 1821.25 369.32 1818.36 366.45 1818.00 366.00
C 1818.87 367.38 1819.83 367.92 1821.00 369.00 Z"/>
</g>
<g fill="None" fill-opacity="0.0" stroke="#718895" stroke-opacity="0.07" stroke-width="0.3"><path d="
M 1669.00 420.00 
C 1669.00 414.33 1669.00 408.67 1669.00 403.00
C 1668.49 408.28 1668.48 414.65 1669.00 420.00 Z"/>
</g>
<g fill="None" fill-opacity="0.0" stroke="#306F96" stroke-opacity="0.37" stroke-width="0.3"><path d="
M 1693.00 413.00 
C 1693.00 411.00 1693.00 409.00 1693.00 407.00
C 1692.83 407.80 1690.96 408.35 1691.01 410.99 C 1691.06 413.62 1693.14 413.55 1693.00 413.00 Z"/>
</g>
<g fill="None" fill-opacity="0.0" stroke="#95A6B0" stroke-opacity="0.02" stroke-width="0.3"><path d="
M 1946.00 432.00 
C 1946.17 431.36 1946.86 431.13 1947.00 430.00
C 1947.49 426.00 1947.36 421.02 1947.00 417.00
C 1947.00 417.00 1946.00 416.96 1946.00 417.00
C 1946.00 422.00 1946.00 427.00 1946.00 432.00 Z"/>
</g>
<g fill="None" fill-opacity="0.0" stroke="#297AB4" stroke-opacity="0.54" stroke-width="0.3"><path d="
M 1947.00 430.00 
C 1948.04 427.45 1949.47 419.39 1947.00 417.00
C 1947.36 421.02 1947.49 426.00 1947.00 430.00 Z"/>
</g>
<g fill="None" fill-opacity="0.0" stroke="#4485BF" stroke-opacity="0.39" stroke-width="0.3"><path d="
M 1943.00 470.00 
C 1943.68 467.68 1944.34 466.49 1944.00 463.00
C 1943.84 464.61 1943.17 467.72 1943.00 470.00 Z"/>
</g>
<g fill="None" fill-opacity="0.0" stroke="#477283" stroke-opacity="0.93" stroke-width="0.3"><path d="
M 1955.00 565.00 
C 1956.25 559.63 1959.33 552.78 1961.00 547.00
C 1960.56 544.37 1962.29 540.21 1959.00 539.00
C 1956.45 547.20 1953.56 558.00 1955.00 565.00 Z"/>
</g>
<g fill="None" fill-opacity="0.0" stroke="#7F969E" stroke-opacity="0.15" stroke-width="0.3"><path d="
M 1955.00 565.00 
C 1954.72 566.21 1955.05 567.76 1955.00 569.00
C 1957.78 562.16 1960.85 554.92 1962.00 547.00
C 1962.00 547.00 1961.04 546.87 1961.00 547.00
C 1959.33 552.78 1956.25 559.63 1955.00 565.00 Z"/>
</g>
<g fill="None" fill-opacity="0.0" stroke="#5C828F" stroke-opacity="0.62" stroke-width="0.3"><path d="
M 1705.00 559.00 
C 1706.14 558.97 1706.72 557.47 1708.00 558.00
C 1709.53 553.80 1706.31 550.84 1705.00 548.00
C 1704.74 552.91 1702.92 553.69 1705.00 559.00 Z"/>
</g>
<g fill="None" fill-opacity="0.0" stroke="#4D8DB3" stroke-opacity="0.16" stroke-width="0.3"><path d="
M 1533.00 579.00 
C 1533.24 574.50 1534.00 570.62 1534.00 566.00
C 1533.26 570.56 1532.54 574.22 1533.00 579.00 Z"/>
</g>
<g fill="None" fill-opacity="0.0" stroke="#629ABF" stroke-opacity="0.24" stroke-width="0.3"><path d="
M 1409.00 585.00 
C 1410.25 583.38 1410.21 584.62 1411.00 582.00
C 1410.51 582.88 1409.53 583.90 1409.00 585.00 Z"/>
</g>
<g fill="None" fill-opacity="0.0" stroke="#358ABB" stroke-opacity="0.33" stroke-width="0.3"><path d="
M 1537.00 595.00 
C 1537.04 594.96 1542.00 590.00 1542.00 590.00
C 1539.95 591.32 1538.53 593.08 1537.00 595.00 Z"/>
</g>
<g fill="None" fill-opacity="0.0" stroke="#78A0C9" stroke-opacity="0.25" stroke-width="0.3"><path d="
M 1686.00 599.00 
C 1685.96 599.05 1688.12 596.95 1688.00 597.00
C 1685.89 597.07 1686.61 597.75 1686.00 599.00 Z"/>
</g>
<g fill="None" fill-opacity="0.0" stroke="#7ECBE4" stroke-opacity="0.15" stroke-width="0.3"><path d="
M 1572.00 609.00 
C 1571.17 606.98 1570.64 607.09 1570.00 606.00
C 1570.84 608.17 1571.07 607.72 1572.00 609.00 Z"/>
</g>
<g fill="None" fill-opacity="0.0" stroke="#A1F0F7" stroke-opacity="1.00" stroke-width="0.3"><path d="
M 1899.00 621.00 
C 1892.38 618.52 1883.30 624.61 1877.03 626.02 C 1870.75 627.44 1865.20 631.55 1860.25 636.25 C 1855.30 640.94 1852.48 645.21 1847.23 650.23 C 1841.98 655.25 1833.95 655.73 1827.00 655.00 C 1820.05 654.27 1813.96 651.58 1809.25 645.75 C 1804.54 639.93 1800.87 637.68 1795.23 632.77 C 1789.59 627.86 1781.79 629.31 1775.02 625.98 C 1768.26 622.64 1757.03 629.50 1766.78 634.22 C 1776.52 638.95 1777.29 634.76 1787.31 640.70 C 1797.32 646.63 1806.53 660.73 1817.93 664.07 C 1829.33 667.41 1832.87 665.74 1841.92 664.92 C 1850.98 664.11 1851.97 657.72 1857.75 653.75 C 1863.54 649.79 1866.01 643.53 1871.30 640.30 C 1876.60 637.08 1884.72 632.16 1890.31 632.31 C 1895.89 632.45 1907.71 624.26 1899.00 621.00 Z"/>
</g>
<g fill="None" fill-opacity="0.0" stroke="#6CA8B7" stroke-opacity="0.09" stroke-width="0.3"><path d="
M 1351.00 627.00 
C 1350.53 626.79 1347.51 624.51 1347.00 624.00
C 1348.37 625.81 1348.89 626.26 1351.00 627.00 Z"/>
</g>
<g fill="None" fill-opacity="0.0" stroke="#4897B8" stroke-opacity="0.14" stroke-width="0.3"><path d="
M 1534.00 642.00 
C 1535.42 640.40 1536.78 638.98 1538.00 637.00
C 1536.68 638.58 1534.43 641.33 1534.00 642.00 Z"/>
</g>
<g fill="None" fill-opacity="0.0" stroke="#1A7AC1" stroke-opacity="0.38" stroke-width="0.3"><path d="
M 1641.00 703.00 
C 1644.44 700.54 1647.20 697.92 1650.00 694.00
C 1647.35 696.60 1642.70 700.94 1641.00 703.00 Z"/>
</g>
<g fill="None" fill-opacity="0.0" stroke="#6A9FC4" stroke-opacity="0.29" stroke-width="0.3"><path d="
M 1844.00 733.00 
C 1843.63 732.28 1843.30 732.25 1842.00 731.00
C 1842.61 731.83 1843.35 732.26 1844.00 733.00 Z"/>
</g>
<g fill="None" fill-opacity="0.0" stroke="#2D7EBA" stroke-opacity="0.41" stroke-width="0.3"><path d="
M 1887.00 774.00 
C 1890.21 776.69 1893.03 781.59 1896.00 785.00
C 1893.98 781.40 1891.91 776.46 1887.00 774.00 Z"/>
</g>
<g fill="None" fill-opacity="0.0" stroke="#5888B4" stroke-opacity="0.36" stroke-width="0.3"><path d="
M 1933.00 809.00 
C 1932.92 807.01 1932.33 805.42 1932.00 804.00
C 1932.01 804.89 1931.25 806.10 1931.03 807.96 C 1930.81 809.81 1933.18 809.72 1933.00 809.00 Z"/>
</g>
<g fill="None" fill-opacity="0.0" stroke="#0F74BC" stroke-opacity="0.78" stroke-width="0.3"><path d="
M 1630.00 812.00 
C 1636.04 812.48 1645.95 814.41 1652.00 813.00 C 1658.05 811.59 1669.87 816.27 1674.00 812.00
C 1661.94 813.07 1648.27 811.87 1637.00 811.00
C 1634.60 811.05 1631.75 811.83 1630.00 812.00 Z"/>
</g>
<g fill="None" fill-opacity="0.0" stroke="#317DB3" stroke-opacity="0.19" stroke-width="0.3"><path d="
M 1674.00 812.00 
C 1674.00 812.00 1674.05 811.00 1674.00 811.00
C 1661.71 810.75 1649.29 810.75 1637.00 811.00
C 1648.27 811.87 1661.94 813.07 1674.00 812.00 Z"/>
</g>
<g fill="None" fill-opacity="0.0" stroke="#000000" stroke-opacity="0.00" stroke-width="0.3"><path d="
M 1540.00 870.00 
C 1539.77 870.48 1540.26 873.02 1541.00 875.00
C 1533.35 871.63 1535.11 884.17 1531.00 887.00
C 1530.73 892.61 1532.20 902.32 1537.31 905.69 C 1542.42 909.07 1548.24 909.65 1553.92 914.08 C 1559.59 918.52 1557.64 926.83 1558.03 932.97 C 1558.42 939.10 1572.73 935.72 1577.78 938.22 C 1582.82 940.73 1593.55 940.56 1600.00 941.00 C 1606.45 941.44 1615.32 942.60 1622.00 943.00
C 1625.19 943.19 1628.02 943.74 1631.00 944.00
C 1633.95 944.26 1637.04 944.00 1640.00 944.00
C 1644.28 944.00 1647.96 944.68 1652.00 945.00
C 1683.28 947.48 1721.07 944.50 1749.00 933.00
C 1753.26 931.24 1757.76 928.39 1762.00 926.00
C 1766.06 923.71 1770.45 921.16 1774.00 918.00
C 1775.46 916.71 1777.97 915.15 1779.00 914.00
C 1782.95 905.31 1789.33 898.88 1789.00 888.00
C 1788.07 881.49 1781.11 867.89 1775.00 868.00
C 1774.39 862.16 1766.86 860.50 1764.00 857.00
C 1762.45 856.35 1761.47 856.01 1760.00 855.00
C 1757.11 853.68 1753.73 852.29 1751.00 851.00
C 1750.36 850.69 1748.73 850.19 1748.00 850.00
C 1743.14 848.77 1738.42 846.34 1734.00 845.00
C 1715.55 841.25 1697.01 837.51 1678.00 836.00
C 1673.76 835.66 1668.57 835.34 1665.00 835.00
C 1622.58 835.00 1569.70 836.58 1540.00 870.00 Z"/>
</g>
<g fill="None" fill-opacity="0.0" stroke="#6F9EC7" stroke-opacity="0.16" stroke-width="0.3"><path d="
M 1678.00 836.00 
C 1674.18 835.26 1669.52 835.00 1665.00 835.00
C 1668.57 835.34 1673.76 835.66 1678.00 836.00 Z"/>
</g>
<g fill="None" fill-opacity="0.0" stroke="#7C9DAD" stroke-opacity="0.13" stroke-width="0.3"><path d="
M 1748.00 850.00 
C 1743.75 847.98 1738.90 846.00 1734.00 845.00
C 1738.42 846.34 1743.14 848.77 1748.00 850.00 Z"/>
</g>
<g fill="None" fill-opacity="0.0" stroke="#6B98B3" stroke-opacity="0.20" stroke-width="0.3"><path d="
M 1751.00 851.00 
C 1753.73 852.29 1757.11 853.68 1760.00 855.00
C 1756.93 852.90 1753.86 851.55 1751.00 851.00 Z"/>
</g>
<g fill="None" fill-opacity="0.0" stroke="#9DBDCE" stroke-opacity="0.10" stroke-width="0.3"><path d="
M 1789.00 888.00 
C 1788.59 874.47 1775.77 861.92 1764.00 857.00
C 1766.86 860.50 1774.39 862.16 1775.00 868.00
C 1781.11 867.89 1788.07 881.49 1789.00 888.00 Z"/>
</g>
<g fill="None" fill-opacity="0.0" stroke="#ACC6DA" stroke-opacity="0.11" stroke-width="0.3"><path d="
M 1531.00 887.00 
C 1535.11 884.17 1533.35 871.63 1541.00 875.00
C 1540.26 873.02 1539.77 870.48 1540.00 870.00
C 1535.71 874.83 1531.34 880.10 1531.00 887.00 Z"/>
</g>
<g fill="None" fill-opacity="0.0" stroke="#C6E0EC" stroke-opacity="1.00" stroke-width="0.3"><path d="
M 1404.00 904.00 
C 1402.42 888.88 1418.74 886.63 1430.00 886.00 C 1441.26 885.37 1454.29 890.79 1462.25 897.75 C 1470.21 904.72 1477.72 920.93 1468.00 929.00
C 1490.98 916.87 1470.39 888.86 1453.02 882.98 C 1435.66 877.10 1396.80 874.95 1404.00 904.00 Z"/>
</g>
<g fill="None" fill-opacity="0.0" stroke="#F9FCFC" stroke-opacity="1.00" stroke-width="0.3"><path d="
M 1404.00 904.00 
C 1409.93 927.94 1447.58 939.78 1468.00 929.00
C 1477.72 920.93 1470.21 904.72 1462.25 897.75 C 1454.29 890.79 1441.26 885.37 1430.00 886.00 C 1418.74 886.63 1402.42 888.88 1404.00 904.00
M 1441.00 902.00 
C 1449.92 904.71 1442.70 917.90 1434.33 912.67 C 1425.96 907.44 1432.80 899.51 1441.00 902.00 Z"/>
</g>
<g fill="None" fill-opacity="0.0" stroke="#F8FBFC" stroke-opacity="1.00" stroke-width="0.3"><path d="
M 1369.00 931.00 
C 1372.37 934.98 1380.11 935.26 1382.75 941.25 C 1385.39 947.24 1391.33 947.94 1395.75 952.25 C 1400.16 956.57 1405.79 958.44 1411.69 961.31 C 1417.60 964.17 1422.07 965.16 1429.23 967.77 C 1436.39 970.38 1442.75 968.11 1452.00 969.00 C 1461.25 969.89 1461.61 961.27 1452.00 962.00 C 1442.38 962.73 1438.65 960.15 1430.93 959.07 C 1423.20 958.00 1419.82 955.51 1413.75 952.25 C 1407.69 948.98 1402.86 947.89 1397.75 943.25 C 1392.64 938.61 1391.11 935.29 1387.23 929.77 C 1383.35 924.25 1383.14 916.61 1382.00 910.00
C 1380.47 903.95 1381.11 897.40 1381.00 891.00
C 1367.30 897.96 1363.55 917.44 1369.00 931.00 Z"/>
</g>
<g fill="None" fill-opacity="0.0" stroke="#25515F" stroke-opacity="1.00" stroke-width="0.3"><path d="
M 1441.00 902.00 
C 1432.80 899.51 1425.96 907.44 1434.33 912.67 C 1442.70 917.90 1449.92 904.71 1441.00 902.00 Z"/>
</g>
<g fill="None" fill-opacity="0.0" stroke="#C9E0EA" stroke-opacity="1.00" stroke-width="0.3"><path d="
M 1369.00 931.00 
C 1379.86 955.79 1404.38 970.94 1429.98 976.02 C 1455.57 981.11 1496.79 979.27 1504.00 948.00
C 1494.15 943.02 1486.80 943.27 1478.23 949.23 C 1469.66 955.19 1457.02 955.09 1447.02 954.98 C 1437.03 954.87 1426.36 950.88 1417.70 947.31 C 1409.04 943.73 1402.60 938.46 1396.25 931.75 C 1389.90 925.05 1384.44 918.37 1382.00 910.00
C 1383.14 916.61 1383.35 924.25 1387.23 929.77 C 1391.11 935.29 1392.64 938.61 1397.75 943.25 C 1402.86 947.89 1407.69 948.98 1413.75 952.25 C 1419.82 955.51 1423.20 958.00 1430.93 959.07 C 1438.65 960.15 1442.38 962.73 1452.00 962.00 C 1461.61 961.27 1461.25 969.89 1452.00 969.00 C 1442.75 968.11 1436.39 970.38 1429.23 967.77 C 1422.07 965.16 1417.60 964.17 1411.69 961.31 C 1405.79 958.44 1400.16 956.57 1395.75 952.25 C 1391.33 947.94 1385.39 947.24 1382.75 941.25 C 1380.11 935.26 1372.37 934.98 1369.00 931.00 Z"/>
</g>
<g fill="None" fill-opacity="0.0" stroke="#5F8DB1" stroke-opacity="0.40" stroke-width="0.3"><path d="
M 1774.00 918.00 
C 1776.62 916.72 1777.75 916.75 1779.00 914.00
C 1777.97 915.15 1775.46 916.71 1774.00 918.00 Z"/>
</g>
<g fill="None" fill-opacity="0.0" stroke="#8CB8D1" stroke-opacity="1.00" stroke-width="0.3"><path d="
M 1529.00 926.00 
C 1529.39 919.80 1520.94 920.14 1516.22 918.78 C 1511.51 917.42 1505.83 916.31 1501.00 915.00
C 1499.49 922.48 1509.09 920.71 1513.93 922.07 C 1518.76 923.44 1523.75 926.07 1529.00 926.00 Z"/>
</g>
<g fill="None" fill-opacity="0.0" stroke="#7797A5" stroke-opacity="0.10" stroke-width="0.3"><path d="
M 1749.00 933.00 
C 1753.42 931.98 1757.60 929.14 1762.00 926.00
C 1757.76 928.39 1753.26 931.24 1749.00 933.00 Z"/>
</g>
<g fill="None" fill-opacity="0.0" stroke="#5F95C0" stroke-opacity="0.36" stroke-width="0.3"><path d="
M 1631.00 944.00 
C 1628.02 943.74 1625.19 943.19 1622.00 943.00
C 1622.57 943.15 1623.76 945.53 1626.00 945.00 C 1628.24 944.46 1629.52 944.14 1631.00 944.00 Z"/>
</g>
<g fill="None" fill-opacity="0.0" stroke="#6B99BF" stroke-opacity="0.41" stroke-width="0.3"><path d="
M 1652.00 945.00 
C 1647.96 944.68 1644.28 944.00 1640.00 944.00
C 1644.23 944.82 1647.42 945.44 1652.00 945.00 Z"/>
</g>
<g fill="#000000" fill-opacity="0.00" stroke="None">
<path d="
M 0.00 1144.00 
L 2237.00 1144.00
L 2237.00 0.00
L 0.00 0.00
L 0.00 1144.00
M 1893.00 322.00 
C 1904.47 324.57 1915.93 326.48 1926.00 333.00
C 1927.14 333.74 1928.10 335.43 1929.00 336.00
C 1930.45 336.07 1930.13 336.09 1931.00 337.00
C 1937.16 340.60 1941.53 345.56 1946.00 351.00
C 1988.92 403.24 1964.39 477.44 1959.00 538.00
C 1963.13 538.36 1963.28 544.03 1962.00 547.00
C 1960.85 554.92 1957.78 562.16 1955.00 569.00
C 1954.62 579.34 1946.70 589.09 1942.08 598.08 C 1937.45 607.06 1931.57 615.22 1926.08 624.08 C 1920.60 632.94 1912.01 638.65 1903.31 644.31 C 1894.60 649.96 1881.67 649.43 1875.23 658.23 C 1868.79 667.03 1860.47 672.28 1852.30 678.30 C 1844.14 684.33 1853.96 700.53 1857.32 708.68 C 1860.69 716.83 1869.28 724.92 1876.25 731.75 C 1883.22 738.58 1891.49 745.54 1898.90 752.10 C 1906.31 758.66 1912.81 765.26 1919.25 773.75 C 1925.69 782.24 1929.57 793.62 1932.00 804.00
C 1932.33 805.42 1932.92 807.01 1933.00 809.00
C 1934.07 835.92 1917.26 856.39 1892.32 865.32 C 1867.38 874.26 1831.89 871.46 1806.00 865.00
C 1817.08 884.97 1814.56 910.62 1799.25 927.25 C 1783.94 943.88 1770.06 952.30 1747.77 959.77 C 1725.48 967.25 1698.32 968.03 1673.00 969.00 C 1647.68 969.97 1617.95 966.79 1592.99 965.01 C 1568.03 963.23 1545.71 954.63 1521.00 955.00
C 1517.46 968.02 1510.12 976.57 1499.30 985.30 C 1488.49 994.04 1475.63 997.76 1461.33 999.33 C 1447.03 1000.90 1427.73 998.75 1414.32 994.68 C 1400.91 990.61 1391.03 984.89 1379.75 977.25 C 1368.48 969.61 1360.83 962.30 1353.70 950.30 C 1346.56 938.31 1342.23 923.19 1344.98 908.98 C 1347.73 894.77 1354.70 885.84 1365.23 876.23 C 1375.76 866.63 1389.37 867.24 1402.22 861.22 C 1415.07 855.20 1433.58 855.41 1447.67 858.33 C 1461.77 861.24 1471.19 867.90 1482.25 875.75 C 1493.31 883.61 1494.73 900.94 1509.00 902.00
C 1503.36 872.35 1520.61 848.66 1545.08 834.08 C 1569.54 819.50 1600.90 812.87 1630.00 812.00
C 1631.75 811.83 1634.60 811.05 1637.00 811.00
C 1649.29 810.75 1661.71 810.75 1674.00 811.00
C 1698.95 811.50 1724.48 817.20 1748.07 822.93 C 1771.67 828.65 1791.82 837.87 1816.01 841.99 C 1840.20 846.12 1866.50 851.41 1890.03 840.03 C 1913.55 828.64 1910.82 802.00 1896.00 785.00
C 1893.03 781.59 1890.21 776.69 1887.00 774.00
C 1869.72 765.36 1856.12 746.89 1844.00 733.00
C 1843.35 732.26 1842.61 731.83 1842.00 731.00
C 1835.78 722.47 1830.92 714.23 1828.23 703.77 C 1825.53 693.31 1824.44 680.10 1811.93 679.07 C 1799.42 678.05 1797.16 667.45 1788.75 661.25 C 1780.35 655.05 1769.58 653.24 1760.31 648.70 C 1751.03 644.15 1746.71 634.74 1740.25 627.75 C 1733.78 620.77 1732.10 606.66 1721.32 605.68 C 1710.55 604.70 1698.88 596.65 1688.00 597.00
C 1688.12 596.95 1685.96 599.05 1686.00 599.00
C 1675.72 612.12 1674.60 631.25 1668.68 646.68 C 1662.76 662.10 1659.95 680.07 1650.00 694.00
C 1647.20 697.92 1644.44 700.54 1641.00 703.00
C 1617.55 719.75 1596.06 699.98 1583.25 679.75 C 1570.43 659.53 1561.05 639.01 1549.00 619.00
C 1545.82 625.34 1541.16 630.68 1538.00 637.00
C 1536.78 638.98 1535.42 640.40 1534.00 642.00
C 1521.42 656.15 1506.51 647.82 1508.00 630.00 C 1509.49 612.18 1507.50 595.09 1510.00 578.00 C 1512.50 560.91 1511.01 544.80 1514.00 528.00
C 1508.41 539.05 1507.17 551.20 1503.22 563.22 C 1499.27 575.24 1498.16 588.05 1494.22 600.22 C 1490.28 612.39 1488.47 624.06 1484.67 636.67 C 1480.87 649.28 1480.40 660.04 1475.07 673.07 C 1469.74 686.11 1452.52 675.88 1453.02 662.98 C 1453.53 650.07 1447.09 636.49 1446.00 624.00 C 1444.91 611.51 1438.05 600.75 1435.00 589.00
C 1422.41 597.64 1425.80 622.15 1409.92 628.92 C 1394.04 635.69 1368.01 626.63 1351.00 627.00
C 1348.89 626.26 1348.37 625.81 1347.00 624.00
C 1340.58 615.51 1347.16 603.45 1358.01 604.01 C 1368.86 604.57 1382.36 605.10 1393.00 606.00 C 1403.65 606.90 1405.36 592.60 1409.00 585.00
C 1409.53 583.90 1410.51 582.88 1411.00 582.00
C 1415.71 566.48 1433.21 547.52 1446.92 564.08 C 1460.62 580.64 1460.34 594.30 1467.00 613.00
C 1469.84 600.49 1475.28 586.71 1477.98 573.98 C 1480.68 561.24 1486.88 547.39 1488.93 534.93 C 1490.97 522.47 1498.11 507.13 1499.78 495.78 C 1501.44 484.43 1513.10 464.39 1525.08 474.92 C 1537.06 485.45 1530.64 501.82 1534.00 516.00 C 1537.35 530.18 1531.48 551.20 1534.00 566.00
C 1534.00 570.62 1533.24 574.50 1533.00 579.00
C 1532.63 585.86 1530.83 593.78 1533.00 600.00
C 1534.61 598.75 1535.36 596.17 1537.00 595.00
C 1538.53 593.08 1539.95 591.32 1542.00 590.00
C 1555.20 581.48 1565.88 595.29 1570.00 606.00
C 1570.64 607.09 1571.17 606.98 1572.00 609.00
C 1577.92 623.44 1583.86 632.44 1591.31 646.70 C 1598.75 660.95 1603.80 667.43 1613.25 682.75 C 1622.70 698.06 1633.15 679.12 1636.99 664.99 C 1640.83 650.86 1647.06 635.73 1650.93 620.93 C 1654.80 606.12 1659.59 594.49 1669.25 581.25 C 1678.91 568.01 1700.05 574.40 1713.00 579.00
C 1710.67 572.24 1707.33 565.78 1705.00 559.00
C 1702.92 553.69 1704.74 552.91 1705.00 548.00
C 1695.94 528.41 1692.35 506.44 1685.02 485.98 C 1677.70 465.51 1669.00 442.54 1669.00 420.00
C 1668.48 414.65 1668.49 408.28 1669.00 403.00
C 1669.00 384.35 1676.03 371.42 1686.30 357.30 C 1696.56 343.17 1712.35 338.90 1728.00 335.00
C 1728.80 334.80 1729.69 334.11 1731.00 334.00
C 1742.28 333.03 1755.40 335.90 1764.70 340.30 C 1774.00 344.71 1787.16 338.38 1796.23 345.77 C 1805.30 353.16 1809.17 363.36 1806.22 374.22 C 1803.27 385.08 1794.54 392.44 1783.00 392.00 C 1771.46 391.56 1764.82 381.17 1763.00 371.00
C 1762.69 369.25 1761.18 366.42 1762.00 364.00
C 1749.40 353.34 1726.36 357.14 1714.11 366.11 C 1701.85 375.08 1693.01 391.49 1693.00 407.00
C 1693.00 409.00 1693.00 411.00 1693.00 413.00
C 1693.00 431.10 1699.78 448.95 1704.32 465.68 C 1708.87 482.41 1714.97 498.75 1719.98 515.02 C 1724.98 531.30 1731.64 546.72 1737.78 562.22 C 1743.91 577.72 1751.02 589.86 1761.75 602.25 C 1772.49 614.64 1797.17 608.57 1807.25 621.75 C 1817.33 634.93 1833.79 647.31 1844.25 630.25 C 1854.72 613.19 1868.73 612.14 1885.07 607.07 C 1901.42 602.00 1911.57 591.67 1919.31 576.31 C 1927.04 560.94 1933.41 545.66 1935.92 527.92 C 1938.44 510.19 1941.61 488.21 1943.00 470.00
C 1943.17 467.72 1943.84 464.61 1944.00 463.00
C 1943.02 452.85 1946.00 442.42 1946.00 432.00
C 1946.00 427.00 1946.00 422.00 1946.00 417.00
C 1946.00 373.30 1904.37 329.36 1859.00 350.00
C 1863.07 371.05 1834.41 386.00 1821.00 369.00
C 1819.83 367.92 1818.87 367.38 1818.00 366.00
C 1805.40 346.03 1827.52 317.12 1850.00 330.00
C 1857.09 323.98 1867.71 322.50 1877.00 321.00
C 1881.16 320.72 1885.84 320.64 1890.00 321.00
C 1891.35 321.12 1892.20 321.82 1893.00 322.00 Z"/>
</g>
<g fill="#0971BF" fill-opacity="0.94" stroke="None">
<path d="
M 1818.00 366.00 
C 1818.36 366.45 1821.25 369.32 1821.00 369.00
C 1834.41 386.00 1863.07 371.05 1859.00 350.00
C 1904.37 329.36 1946.00 373.30 1946.00 417.00
C 1946.00 416.96 1947.00 417.00 1947.00 417.00
C 1949.47 419.39 1948.04 427.45 1947.00 430.00
C 1946.86 431.13 1946.17 431.36 1946.00 432.00
C 1946.00 442.42 1943.02 452.85 1944.00 463.00
C 1944.34 466.49 1943.68 467.68 1943.00 470.00
C 1941.61 488.21 1938.44 510.19 1935.92 527.92 C 1933.41 545.66 1927.04 560.94 1919.31 576.31 C 1911.57 591.67 1901.42 602.00 1885.07 607.07 C 1868.73 612.14 1854.72 613.19 1844.25 630.25 C 1833.79 647.31 1817.33 634.93 1807.25 621.75 C 1797.17 608.57 1772.49 614.64 1761.75 602.25 C 1751.02 589.86 1743.91 577.72 1737.78 562.22 C 1731.64 546.72 1724.98 531.30 1719.98 515.02 C 1714.97 498.75 1708.87 482.41 1704.32 465.68 C 1699.78 448.95 1693.00 431.10 1693.00 413.00
C 1693.14 413.55 1691.06 413.62 1691.01 410.99 C 1690.96 408.35 1692.83 407.80 1693.00 407.00
C 1693.01 391.49 1701.85 375.08 1714.11 366.11 C 1726.36 357.14 1749.40 353.34 1762.00 364.00
C 1765.00 366.54 1763.10 367.63 1763.00 371.00
C 1764.82 381.17 1771.46 391.56 1783.00 392.00 C 1794.54 392.44 1803.27 385.08 1806.22 374.22 C 1809.17 363.36 1805.30 353.16 1796.23 345.77 C 1787.16 338.38 1774.00 344.71 1764.70 340.30 C 1755.40 335.90 1742.28 333.03 1731.00 334.00
C 1730.10 334.25 1729.60 334.94 1728.00 335.00
C 1712.35 338.90 1696.56 343.17 1686.30 357.30 C 1676.03 371.42 1669.00 384.35 1669.00 403.00
C 1669.00 408.67 1669.00 414.33 1669.00 420.00
C 1669.00 442.54 1677.70 465.51 1685.02 485.98 C 1692.35 506.44 1695.94 528.41 1705.00 548.00
C 1706.31 550.84 1709.53 553.80 1708.00 558.00
C 1706.72 557.47 1706.14 558.97 1705.00 559.00
C 1707.33 565.78 1710.67 572.24 1713.00 579.00
C 1700.05 574.40 1678.91 568.01 1669.25 581.25 C 1659.59 594.49 1654.80 606.12 1650.93 620.93 C 1647.06 635.73 1640.83 650.86 1636.99 664.99 C 1633.15 679.12 1622.70 698.06 1613.25 682.75 C 1603.80 667.43 1598.75 660.95 1591.31 646.70 C 1583.86 632.44 1577.92 623.44 1572.00 609.00
C 1571.07 607.72 1570.84 608.17 1570.00 606.00
C 1565.88 595.29 1555.20 581.48 1542.00 590.00
C 1542.00 590.00 1537.04 594.96 1537.00 595.00
C 1535.36 596.17 1534.61 598.75 1533.00 600.00
C 1530.83 593.78 1532.63 585.86 1533.00 579.00
C 1532.54 574.22 1533.26 570.56 1534.00 566.00
C 1531.48 551.20 1537.35 530.18 1534.00 516.00 C 1530.64 501.82 1537.06 485.45 1525.08 474.92 C 1513.10 464.39 1501.44 484.43 1499.78 495.78 C 1498.11 507.13 1490.97 522.47 1488.93 534.93 C 1486.88 547.39 1480.68 561.24 1477.98 573.98 C 1475.28 586.71 1469.84 600.49 1467.00 613.00
C 1460.34 594.30 1460.62 580.64 1446.92 564.08 C 1433.21 547.52 1415.71 566.48 1411.00 582.00
C 1410.21 584.62 1410.25 583.38 1409.00 585.00
C 1405.36 592.60 1403.65 606.90 1393.00 606.00 C 1382.36 605.10 1368.86 604.57 1358.01 604.01 C 1347.16 603.45 1340.58 615.51 1347.00 624.00
C 1347.51 624.51 1350.53 626.79 1351.00 627.00
C 1368.01 626.63 1394.04 635.69 1409.92 628.92 C 1425.80 622.15 1422.41 597.64 1435.00 589.00
C 1438.05 600.75 1444.91 611.51 1446.00 624.00 C 1447.09 636.49 1453.53 650.07 1453.02 662.98 C 1452.52 675.88 1469.74 686.11 1475.07 673.07 C 1480.40 660.04 1480.87 649.28 1484.67 636.67 C 1488.47 624.06 1490.28 612.39 1494.22 600.22 C 1498.16 588.05 1499.27 575.24 1503.22 563.22 C 1507.17 551.20 1508.41 539.05 1514.00 528.00
C 1511.01 544.80 1512.50 560.91 1510.00 578.00 C 1507.50 595.09 1509.49 612.18 1508.00 630.00 C 1506.51 647.82 1521.42 656.15 1534.00 642.00
C 1534.43 641.33 1536.68 638.58 1538.00 637.00
C 1541.16 630.68 1545.82 625.34 1549.00 619.00
C 1561.05 639.01 1570.43 659.53 1583.25 679.75 C 1596.06 699.98 1617.55 719.75 1641.00 703.00
C 1642.70 700.94 1647.35 696.60 1650.00 694.00
C 1659.95 680.07 1662.76 662.10 1668.68 646.68 C 1674.60 631.25 1675.72 612.12 1686.00 599.00
C 1686.61 597.75 1685.89 597.07 1688.00 597.00
C 1698.88 596.65 1710.55 604.70 1721.32 605.68 C 1732.10 606.66 1733.78 620.77 1740.25 627.75 C 1746.71 634.74 1751.03 644.15 1760.31 648.70 C 1769.58 653.24 1780.35 655.05 1788.75 661.25 C 1797.16 667.45 1799.42 678.05 1811.93 679.07 C 1824.44 680.10 1825.53 693.31 1828.23 703.77 C 1830.92 714.23 1835.78 722.47 1842.00 731.00
C 1843.30 732.25 1843.63 732.28 1844.00 733.00
C 1856.12 746.89 1869.72 765.36 1887.00 774.00
C 1891.91 776.46 1893.98 781.40 1896.00 785.00
C 1910.82 802.00 1913.55 828.64 1890.03 840.03 C 1866.50 851.41 1840.20 846.12 1816.01 841.99 C 1791.82 837.87 1771.67 828.65 1748.07 822.93 C 1724.48 817.20 1698.95 811.50 1674.00 811.00
C 1674.05 811.00 1674.00 812.00 1674.00 812.00
C 1669.87 816.27 1658.05 811.59 1652.00 813.00 C 1645.95 814.41 1636.04 812.48 1630.00 812.00
C 1600.90 812.87 1569.54 819.50 1545.08 834.08 C 1520.61 848.66 1503.36 872.35 1509.00 902.00
C 1494.73 900.94 1493.31 883.61 1482.25 875.75 C 1471.19 867.90 1461.77 861.24 1447.67 858.33 C 1433.58 855.41 1415.07 855.20 1402.22 861.22 C 1389.37 867.24 1375.76 866.63 1365.23 876.23 C 1354.70 885.84 1347.73 894.77 1344.98 908.98 C 1342.23 923.19 1346.56 938.31 1353.70 950.30 C 1360.83 962.30 1368.48 969.61 1379.75 977.25 C 1391.03 984.89 1400.91 990.61 1414.32 994.68 C 1427.73 998.75 1447.03 1000.90 1461.33 999.33 C 1475.63 997.76 1488.49 994.04 1499.30 985.30 C 1510.12 976.57 1517.46 968.02 1521.00 955.00
C 1545.71 954.63 1568.03 963.23 1592.99 965.01 C 1617.95 966.79 1647.68 969.97 1673.00 969.00 C 1698.32 968.03 1725.48 967.25 1747.77 959.77 C 1770.06 952.30 1783.94 943.88 1799.25 927.25 C 1814.56 910.62 1817.08 884.97 1806.00 865.00
C 1831.89 871.46 1867.38 874.26 1892.32 865.32 C 1917.26 856.39 1934.07 835.92 1933.00 809.00
C 1933.18 809.72 1930.81 809.81 1931.03 807.96 C 1931.25 806.10 1932.01 804.89 1932.00 804.00
C 1929.57 793.62 1925.69 782.24 1919.25 773.75 C 1912.81 765.26 1906.31 758.66 1898.90 752.10 C 1891.49 745.54 1883.22 738.58 1876.25 731.75 C 1869.28 724.92 1860.69 716.83 1857.32 708.68 C 1853.96 700.53 1844.14 684.33 1852.30 678.30 C 1860.47 672.28 1868.79 667.03 1875.23 658.23 C 1881.67 649.43 1894.60 649.96 1903.31 644.31 C 1912.01 638.65 1920.60 632.94 1926.08 624.08 C 1931.57 615.22 1937.45 607.06 1942.08 598.08 C 1946.70 589.09 1954.62 579.34 1955.00 569.00
C 1955.05 567.76 1954.72 566.21 1955.00 565.00
C 1953.56 558.00 1956.45 547.20 1959.00 539.00
C 1962.29 540.21 1960.56 544.37 1961.00 547.00
C 1961.04 546.87 1962.00 547.00 1962.00 547.00
C 1963.28 544.03 1963.13 538.36 1959.00 538.00
C 1964.39 477.44 1988.92 403.24 1946.00 351.00
C 1941.82 347.86 1935.63 341.85 1931.00 337.00
C 1930.13 336.09 1930.45 336.07 1929.00 336.00
C 1926.58 335.89 1927.85 334.58 1926.00 333.00
C 1915.93 326.48 1904.47 324.57 1893.00 322.00
C 1889.51 322.21 1880.13 325.22 1877.00 322.00
C 1876.75 321.74 1877.00 321.00 1877.00 321.00
C 1867.71 322.50 1857.09 323.98 1850.00 330.00
C 1827.52 317.12 1805.40 346.03 1818.00 366.00
M 1839.00 343.00 
C 1848.49 345.18 1843.83 364.49 1834.00 361.00 C 1824.17 357.51 1830.72 341.10 1839.00 343.00
M 1786.00 357.00 
C 1795.55 358.89 1793.43 378.08 1783.00 376.00 C 1772.57 373.92 1776.54 355.12 1786.00 357.00
M 1899.00 621.00 
C 1907.71 624.26 1895.89 632.45 1890.31 632.31 C 1884.72 632.16 1876.60 637.08 1871.30 640.30 C 1866.01 643.53 1863.54 649.79 1857.75 653.75 C 1851.97 657.72 1850.98 664.11 1841.92 664.92 C 1832.87 665.74 1829.33 667.41 1817.93 664.07 C 1806.53 660.73 1797.32 646.63 1787.31 640.70 C 1777.29 634.76 1776.52 638.95 1766.78 634.22 C 1757.03 629.50 1768.26 622.64 1775.02 625.98 C 1781.79 629.31 1789.59 627.86 1795.23 632.77 C 1800.87 637.68 1804.54 639.93 1809.25 645.75 C 1813.96 651.58 1820.05 654.27 1827.00 655.00 C 1833.95 655.73 1841.98 655.25 1847.23 650.23 C 1852.48 645.21 1855.30 640.94 1860.25 636.25 C 1865.20 631.55 1870.75 627.44 1877.03 626.02 C 1883.30 624.61 1892.38 618.52 1899.00 621.00
M 1678.00 836.00 
C 1697.01 837.51 1715.55 841.25 1734.00 845.00
C 1738.90 846.00 1743.75 847.98 1748.00 850.00
C 1748.73 850.19 1750.36 850.69 1751.00 851.00
C 1753.86 851.55 1756.93 852.90 1760.00 855.00
C 1761.47 856.01 1762.45 856.35 1764.00 857.00
C 1775.77 861.92 1788.59 874.47 1789.00 888.00
C 1789.33 898.88 1782.95 905.31 1779.00 914.00
C 1777.75 916.75 1776.62 916.72 1774.00 918.00
C 1770.45 921.16 1766.06 923.71 1762.00 926.00
C 1757.60 929.14 1753.42 931.98 1749.00 933.00
C 1721.07 944.50 1683.28 947.48 1652.00 945.00
C 1647.42 945.44 1644.23 944.82 1640.00 944.00
C 1637.04 944.00 1633.95 944.26 1631.00 944.00
C 1629.52 944.14 1628.24 944.46 1626.00 945.00 C 1623.76 945.53 1622.57 943.15 1622.00 943.00
C 1615.32 942.60 1606.45 941.44 1600.00 941.00 C 1593.55 940.56 1582.82 940.73 1577.78 938.22 C 1572.73 935.72 1558.42 939.10 1558.03 932.97 C 1557.64 926.83 1559.59 918.52 1553.92 914.08 C 1548.24 909.65 1542.42 909.07 1537.31 905.69 C 1532.20 902.32 1530.73 892.61 1531.00 887.00
C 1531.34 880.10 1535.71 874.83 1540.00 870.00
C 1569.70 836.58 1622.58 835.00 1665.00 835.00
C 1669.52 835.00 1674.18 835.26 1678.00 836.00
M 1468.00 929.00 
C 1447.58 939.78 1409.93 927.94 1404.00 904.00
C 1396.80 874.95 1435.66 877.10 1453.02 882.98 C 1470.39 888.86 1490.98 916.87 1468.00 929.00
M 1382.00 910.00 
C 1384.44 918.37 1389.90 925.05 1396.25 931.75 C 1402.60 938.46 1409.04 943.73 1417.70 947.31 C 1426.36 950.88 1437.03 954.87 1447.02 954.98 C 1457.02 955.09 1469.66 955.19 1478.23 949.23 C 1486.80 943.27 1494.15 943.02 1504.00 948.00
C 1496.79 979.27 1455.57 981.11 1429.98 976.02 C 1404.38 970.94 1379.86 955.79 1369.00 931.00
C 1363.55 917.44 1367.30 897.96 1381.00 891.00
C 1381.11 897.40 1380.47 903.95 1382.00 910.00
M 1529.00 926.00 
C 1523.75 926.07 1518.76 923.44 1513.93 922.07 C 1509.09 920.71 1499.49 922.48 1501.00 915.00
C 1505.83 916.31 1511.51 917.42 1516.22 918.78 C 1520.94 920.14 1529.39 919.80 1529.00 926.00 Z"/>
</g>
<g fill="#8AA6BC" fill-opacity="0.03" stroke="None">
<path d="
M 1877.00 322.00 
C 1881.40 322.40 1886.42 321.18 1890.00 321.00
C 1885.84 320.64 1881.16 320.72 1877.00 321.00
C 1877.00 321.00 1876.75 321.74 1877.00 322.00 Z"/>
</g>
<g fill="#0873BD" fill-opacity="0.58" stroke="None">
<path d="
M 1877.00 322.00 
C 1880.13 325.22 1889.51 322.21 1893.00 322.00
C 1892.20 321.82 1891.35 321.12 1890.00 321.00
C 1886.42 321.18 1881.40 322.40 1877.00 322.00 Z"/>
</g>
<g fill="#3B90B7" fill-opacity="0.26" stroke="None">
<path d="
M 1929.00 336.00 
C 1928.10 335.43 1927.14 333.74 1926.00 333.00
C 1927.85 334.58 1926.58 335.89 1929.00 336.00 Z"/>
</g>
<g fill="#5188A6" fill-opacity="0.34" stroke="None">
<path d="
M 1728.00 335.00 
C 1729.60 334.94 1730.10 334.25 1731.00 334.00
C 1729.69 334.11 1728.80 334.80 1728.00 335.00 Z"/>
</g>
<g fill="#2B82C0" fill-opacity="0.33" stroke="None">
<path d="
M 1946.00 351.00 
C 1941.53 345.56 1937.16 340.60 1931.00 337.00
C 1935.63 341.85 1941.82 347.86 1946.00 351.00 Z"/>
</g>
<g fill="#9DEDF5" fill-opacity="1.00" stroke="None">
<path d="
M 1839.00 343.00 
C 1830.72 341.10 1824.17 357.51 1834.00 361.00 C 1843.83 364.49 1848.49 345.18 1839.00 343.00 Z"/>
</g>
<g fill="#A0EFF7" fill-opacity="1.00" stroke="None">
<path d="
M 1786.00 357.00 
C 1776.54 355.12 1772.57 373.92 1783.00 376.00 C 1793.43 378.08 1795.55 358.89 1786.00 357.00 Z"/>
</g>
<g fill="#5994B4" fill-opacity="0.23" stroke="None">
<path d="
M 1763.00 371.00 
C 1763.10 367.63 1765.00 366.54 1762.00 364.00
C 1761.18 366.42 1762.69 369.25 1763.00 371.00 Z"/>
</g>
<g fill="#477CA2" fill-opacity="0.31" stroke="None">
<path d="
M 1821.00 369.00 
C 1821.25 369.32 1818.36 366.45 1818.00 366.00
C 1818.87 367.38 1819.83 367.92 1821.00 369.00 Z"/>
</g>
<g fill="#718895" fill-opacity="0.07" stroke="None">
<path d="
M 1669.00 420.00 
C 1669.00 414.33 1669.00 408.67 1669.00 403.00
C 1668.49 408.28 1668.48 414.65 1669.00 420.00 Z"/>
</g>
<g fill="#306F96" fill-opacity="0.37" stroke="None">
<path d="
M 1693.00 413.00 
C 1693.00 411.00 1693.00 409.00 1693.00 407.00
C 1692.83 407.80 1690.96 408.35 1691.01 410.99 C 1691.06 413.62 1693.14 413.55 1693.00 413.00 Z"/>
</g>
<g fill="#95A6B0" fill-opacity="0.02" stroke="None">
<path d="
M 1946.00 432.00 
C 1946.17 431.36 1946.86 431.13 1947.00 430.00
C 1947.49 426.00 1947.36 421.02 1947.00 417.00
C 1947.00 417.00 1946.00 416.96 1946.00 417.00
C 1946.00 422.00 1946.00 427.00 1946.00 432.00 Z"/>
</g>
<g fill="#297AB4" fill-opacity="0.54" stroke="None">
<path d="
M 1947.00 430.00 
C 1948.04 427.45 1949.47 419.39 1947.00 417.00
C 1947.36 421.02 1947.49 426.00 1947.00 430.00 Z"/>
</g>
<g fill="#4485BF" fill-opacity="0.39" stroke="None">
<path d="
M 1943.00 470.00 
C 1943.68 467.68 1944.34 466.49 1944.00 463.00
C 1943.84 464.61 1943.17 467.72 1943.00 470.00 Z"/>
</g>
<g fill="#477283" fill-opacity="0.93" stroke="None">
<path d="
M 1955.00 565.00 
C 1956.25 559.63 1959.33 552.78 1961.00 547.00
C 1960.56 544.37 1962.29 540.21 1959.00 539.00
C 1956.45 547.20 1953.56 558.00 1955.00 565.00 Z"/>
</g>
<g fill="#7F969E" fill-opacity="0.15" stroke="None">
<path d="
M 1955.00 565.00 
C 1954.72 566.21 1955.05 567.76 1955.00 569.00
C 1957.78 562.16 1960.85 554.92 1962.00 547.00
C 1962.00 547.00 1961.04 546.87 1961.00 547.00
C 1959.33 552.78 1956.25 559.63 1955.00 565.00 Z"/>
</g>
<g fill="#5C828F" fill-opacity="0.62" stroke="None">
<path d="
M 1705.00 559.00 
C 1706.14 558.97 1706.72 557.47 1708.00 558.00
C 1709.53 553.80 1706.31 550.84 1705.00 548.00
C 1704.74 552.91 1702.92 553.69 1705.00 559.00 Z"/>
</g>
<g fill="#4D8DB3" fill-opacity="0.16" stroke="None">
<path d="
M 1533.00 579.00 
C 1533.24 574.50 1534.00 570.62 1534.00 566.00
C 1533.26 570.56 1532.54 574.22 1533.00 579.00 Z"/>
</g>
<g fill="#629ABF" fill-opacity="0.24" stroke="None">
<path d="
M 1409.00 585.00 
C 1410.25 583.38 1410.21 584.62 1411.00 582.00
C 1410.51 582.88 1409.53 583.90 1409.00 585.00 Z"/>
</g>
<g fill="#358ABB" fill-opacity="0.33" stroke="None">
<path d="
M 1537.00 595.00 
C 1537.04 594.96 1542.00 590.00 1542.00 590.00
C 1539.95 591.32 1538.53 593.08 1537.00 595.00 Z"/>
</g>
<g fill="#78A0C9" fill-opacity="0.25" stroke="None">
<path d="
M 1686.00 599.00 
C 1685.96 599.05 1688.12 596.95 1688.00 597.00
C 1685.89 597.07 1686.61 597.75 1686.00 599.00 Z"/>
</g>
<g fill="#7ECBE4" fill-opacity="0.15" stroke="None">
<path d="
M 1572.00 609.00 
C 1571.17 606.98 1570.64 607.09 1570.00 606.00
C 1570.84 608.17 1571.07 607.72 1572.00 609.00 Z"/>
</g>
<g fill="#A1F0F7" fill-opacity="1.00" stroke="None">
<path d="
M 1899.00 621.00 
C 1892.38 618.52 1883.30 624.61 1877.03 626.02 C 1870.75 627.44 1865.20 631.55 1860.25 636.25 C 1855.30 640.94 1852.48 645.21 1847.23 650.23 C 1841.98 655.25 1833.95 655.73 1827.00 655.00 C 1820.05 654.27 1813.96 651.58 1809.25 645.75 C 1804.54 639.93 1800.87 637.68 1795.23 632.77 C 1789.59 627.86 1781.79 629.31 1775.02 625.98 C 1768.26 622.64 1757.03 629.50 1766.78 634.22 C 1776.52 638.95 1777.29 634.76 1787.31 640.70 C 1797.32 646.63 1806.53 660.73 1817.93 664.07 C 1829.33 667.41 1832.87 665.74 1841.92 664.92 C 1850.98 664.11 1851.97 657.72 1857.75 653.75 C 1863.54 649.79 1866.01 643.53 1871.30 640.30 C 1876.60 637.08 1884.72 632.16 1890.31 632.31 C 1895.89 632.45 1907.71 624.26 1899.00 621.00 Z"/>
</g>
<g fill="#6CA8B7" fill-opacity="0.09" stroke="None">
<path d="
M 1351.00 627.00 
C 1350.53 626.79 1347.51 624.51 1347.00 624.00
C 1348.37 625.81 1348.89 626.26 1351.00 627.00 Z"/>
</g>
<g fill="#4897B8" fill-opacity="0.14" stroke="None">
<path d="
M 1534.00 642.00 
C 1535.42 640.40 1536.78 638.98 1538.00 637.00
C 1536.68 638.58 1534.43 641.33 1534.00 642.00 Z"/>
</g>
<g fill="#1A7AC1" fill-opacity="0.38" stroke="None">
<path d="
M 1641.00 703.00 
C 1644.44 700.54 1647.20 697.92 1650.00 694.00
C 1647.35 696.60 1642.70 700.94 1641.00 703.00 Z"/>
</g>
<g fill="#6A9FC4" fill-opacity="0.29" stroke="None">
<path d="
M 1844.00 733.00 
C 1843.63 732.28 1843.30 732.25 1842.00 731.00
C 1842.61 731.83 1843.35 732.26 1844.00 733.00 Z"/>
</g>
<g fill="#2D7EBA" fill-opacity="0.41" stroke="None">
<path d="
M 1887.00 774.00 
C 1890.21 776.69 1893.03 781.59 1896.00 785.00
C 1893.98 781.40 1891.91 776.46 1887.00 774.00 Z"/>
</g>
<g fill="#5888B4" fill-opacity="0.36" stroke="None">
<path d="
M 1933.00 809.00 
C 1932.92 807.01 1932.33 805.42 1932.00 804.00
C 1932.01 804.89 1931.25 806.10 1931.03 807.96 C 1930.81 809.81 1933.18 809.72 1933.00 809.00 Z"/>
</g>
<g fill="#0F74BC" fill-opacity="0.78" stroke="None">
<path d="
M 1630.00 812.00 
C 1636.04 812.48 1645.95 814.41 1652.00 813.00 C 1658.05 811.59 1669.87 816.27 1674.00 812.00
C 1661.94 813.07 1648.27 811.87 1637.00 811.00
C 1634.60 811.05 1631.75 811.83 1630.00 812.00 Z"/>
</g>
<g fill="#317DB3" fill-opacity="0.19" stroke="None">
<path d="
M 1674.00 812.00 
C 1674.00 812.00 1674.05 811.00 1674.00 811.00
C 1661.71 810.75 1649.29 810.75 1637.00 811.00
C 1648.27 811.87 1661.94 813.07 1674.00 812.00 Z"/>
</g>
<g fill="#000000" fill-opacity="0.00" stroke="None">
<path d="
M 1540.00 870.00 
C 1539.77 870.48 1540.26 873.02 1541.00 875.00
C 1533.35 871.63 1535.11 884.17 1531.00 887.00
C 1530.73 892.61 1532.20 902.32 1537.31 905.69 C 1542.42 909.07 1548.24 909.65 1553.92 914.08 C 1559.59 918.52 1557.64 926.83 1558.03 932.97 C 1558.42 939.10 1572.73 935.72 1577.78 938.22 C 1582.82 940.73 1593.55 940.56 1600.00 941.00 C 1606.45 941.44 1615.32 942.60 1622.00 943.00
C 1625.19 943.19 1628.02 943.74 1631.00 944.00
C 1633.95 944.26 1637.04 944.00 1640.00 944.00
C 1644.28 944.00 1647.96 944.68 1652.00 945.00
C 1683.28 947.48 1721.07 944.50 1749.00 933.00
C 1753.26 931.24 1757.76 928.39 1762.00 926.00
C 1766.06 923.71 1770.45 921.16 1774.00 918.00
C 1775.46 916.71 1777.97 915.15 1779.00 914.00
C 1782.95 905.31 1789.33 898.88 1789.00 888.00
C 1788.07 881.49 1781.11 867.89 1775.00 868.00
C 1774.39 862.16 1766.86 860.50 1764.00 857.00
C 1762.45 856.35 1761.47 856.01 1760.00 855.00
C 1757.11 853.68 1753.73 852.29 1751.00 851.00
C 1750.36 850.69 1748.73 850.19 1748.00 850.00
C 1743.14 848.77 1738.42 846.34 1734.00 845.00
C 1715.55 841.25 1697.01 837.51 1678.00 836.00
C 1673.76 835.66 1668.57 835.34 1665.00 835.00
C 1622.58 835.00 1569.70 836.58 1540.00 870.00 Z"/>
</g>
<g fill="#6F9EC7" fill-opacity="0.16" stroke="None">
<path d="
M 1678.00 836.00 
C 1674.18 835.26 1669.52 835.00 1665.00 835.00
C 1668.57 835.34 1673.76 835.66 1678.00 836.00 Z"/>
</g>
<g fill="#7C9DAD" fill-opacity="0.13" stroke="None">
<path d="
M 1748.00 850.00 
C 1743.75 847.98 1738.90 846.00 1734.00 845.00
C 1738.42 846.34 1743.14 848.77 1748.00 850.00 Z"/>
</g>
<g fill="#6B98B3" fill-opacity="0.20" stroke="None">
<path d="
M 1751.00 851.00 
C 1753.73 852.29 1757.11 853.68 1760.00 855.00
C 1756.93 852.90 1753.86 851.55 1751.00 851.00 Z"/>
</g>
<g fill="#9DBDCE" fill-opacity="0.10" stroke="None">
<path d="
M 1789.00 888.00 
C 1788.59 874.47 1775.77 861.92 1764.00 857.00
C 1766.86 860.50 1774.39 862.16 1775.00 868.00
C 1781.11 867.89 1788.07 881.49 1789.00 888.00 Z"/>
</g>
<g fill="#ACC6DA" fill-opacity="0.11" stroke="None">
<path d="
M 1531.00 887.00 
C 1535.11 884.17 1533.35 871.63 1541.00 875.00
C 1540.26 873.02 1539.77 870.48 1540.00 870.00
C 1535.71 874.83 1531.34 880.10 1531.00 887.00 Z"/>
</g>
<g fill="#C6E0EC" fill-opacity="1.00" stroke="None">
<path d="
M 1404.00 904.00 
C 1402.42 888.88 1418.74 886.63 1430.00 886.00 C 1441.26 885.37 1454.29 890.79 1462.25 897.75 C 1470.21 904.72 1477.72 920.93 1468.00 929.00
C 1490.98 916.87 1470.39 888.86 1453.02 882.98 C 1435.66 877.10 1396.80 874.95 1404.00 904.00 Z"/>
</g>
<g fill="#F9FCFC" fill-opacity="1.00" stroke="None">
<path d="
M 1404.00 904.00 
C 1409.93 927.94 1447.58 939.78 1468.00 929.00
C 1477.72 920.93 1470.21 904.72 1462.25 897.75 C 1454.29 890.79 1441.26 885.37 1430.00 886.00 C 1418.74 886.63 1402.42 888.88 1404.00 904.00
M 1441.00 902.00 
C 1449.92 904.71 1442.70 917.90 1434.33 912.67 C 1425.96 907.44 1432.80 899.51 1441.00 902.00 Z"/>
</g>
<g fill="#F8FBFC" fill-opacity="1.00" stroke="None">
<path d="
M 1369.00 931.00 
C 1372.37 934.98 1380.11 935.26 1382.75 941.25 C 1385.39 947.24 1391.33 947.94 1395.75 952.25 C 1400.16 956.57 1405.79 958.44 1411.69 961.31 C 1417.60 964.17 1422.07 965.16 1429.23 967.77 C 1436.39 970.38 1442.75 968.11 1452.00 969.00 C 1461.25 969.89 1461.61 961.27 1452.00 962.00 C 1442.38 962.73 1438.65 960.15 1430.93 959.07 C 1423.20 958.00 1419.82 955.51 1413.75 952.25 C 1407.69 948.98 1402.86 947.89 1397.75 943.25 C 1392.64 938.61 1391.11 935.29 1387.23 929.77 C 1383.35 924.25 1383.14 916.61 1382.00 910.00
C 1380.47 903.95 1381.11 897.40 1381.00 891.00
C 1367.30 897.96 1363.55 917.44 1369.00 931.00 Z"/>
</g>
<g fill="#25515F" fill-opacity="1.00" stroke="None">
<path d="
M 1441.00 902.00 
C 1432.80 899.51 1425.96 907.44 1434.33 912.67 C 1442.70 917.90 1449.92 904.71 1441.00 902.00 Z"/>
</g>
<g fill="#C9E0EA" fill-opacity="1.00" stroke="None">
<path d="
M 1369.00 931.00 
C 1379.86 955.79 1404.38 970.94 1429.98 976.02 C 1455.57 981.11 1496.79 979.27 1504.00 948.00
C 1494.15 943.02 1486.80 943.27 1478.23 949.23 C 1469.66 955.19 1457.02 955.09 1447.02 954.98 C 1437.03 954.87 1426.36 950.88 1417.70 947.31 C 1409.04 943.73 1402.60 938.46 1396.25 931.75 C 1389.90 925.05 1384.44 918.37 1382.00 910.00
C 1383.14 916.61 1383.35 924.25 1387.23 929.77 C 1391.11 935.29 1392.64 938.61 1397.75 943.25 C 1402.86 947.89 1407.69 948.98 1413.75 952.25 C 1419.82 955.51 1423.20 958.00 1430.93 959.07 C 1438.65 960.15 1442.38 962.73 1452.00 962.00 C 1461.61 961.27 1461.25 969.89 1452.00 969.00 C 1442.75 968.11 1436.39 970.38 1429.23 967.77 C 1422.07 965.16 1417.60 964.17 1411.69 961.31 C 1405.79 958.44 1400.16 956.57 1395.75 952.25 C 1391.33 947.94 1385.39 947.24 1382.75 941.25 C 1380.11 935.26 1372.37 934.98 1369.00 931.00 Z"/>
</g>
<g fill="#5F8DB1" fill-opacity="0.40" stroke="None">
<path d="
M 1774.00 918.00 
C 1776.62 916.72 1777.75 916.75 1779.00 914.00
C 1777.97 915.15 1775.46 916.71 1774.00 918.00 Z"/>
</g>
<g fill="#8CB8D1" fill-opacity="1.00" stroke="None">
<path d="
M 1529.00 926.00 
C 1529.39 919.80 1520.94 920.14 1516.22 918.78 C 1511.51 917.42 1505.83 916.31 1501.00 915.00
C 1499.49 922.48 1509.09 920.71 1513.93 922.07 C 1518.76 923.44 1523.75 926.07 1529.00 926.00 Z"/>
</g>
<g fill="#7797A5" fill-opacity="0.10" stroke="None">
<path d="
M 1749.00 933.00 
C 1753.42 931.98 1757.60 929.14 1762.00 926.00
C 1757.76 928.39 1753.26 931.24 1749.00 933.00 Z"/>
</g>
<g fill="#5F95C0" fill-opacity="0.36" stroke="None">
<path d="
M 1631.00 944.00 
C 1628.02 943.74 1625.19 943.19 1622.00 943.00
C 1622.57 943.15 1623.76 945.53 1626.00 945.00 C 1628.24 944.46 1629.52 944.14 1631.00 944.00 Z"/>
</g>
<g fill="#6B99BF" fill-opacity="0.41" stroke="None">
<path d="
M 1652.00 945.00 
C 1647.96 944.68 1644.28 944.00 1640.00 944.00
C 1644.23 944.82 1647.42 945.44 1652.00 945.00 Z"/>
</g>
</svg>