<?xml version="1.0" encoding="UTF-8" standalone="no"?>
<!DOCTYPE svg PUBLIC "-//W3C//DTD SVG 1.1//EN" "http://www.w3.org/Graphics/SVG/1.1/DTD/svg11.dtd">
<svg xmlns="http://www.w3.org/2000/svg" version="1.1" viewBox="0.00 0.00 324.00 324.00">
<g stroke-width="3.40" fill="none" stroke-linecap="butt">
<path stroke="#603860" vector-effect="non-scaling-stroke" d="
  M 209.18 188.40
  L 219.89 188.16
  A 1.24 1.23 89.3 0 0 221.09 186.92
  L 220.97 143.03"
/>
<path stroke="#e08080" vector-effect="non-scaling-stroke" d="
  M 220.97 143.03
  Q 221.76 143.86 222.69 143.43
  A 1.01 1.01 0.0 0 0 222.31 141.51
  Q 205.50 140.91 187.70 142.22"
/>
<path stroke="#603860" vector-effect="non-scaling-stroke" d="
  M 187.70 142.22
  L 187.53 110.44
  A 1.48 1.48 0.0 0 0 186.06 108.96
  L 167.17 108.89"
/>
<path stroke="#603860" vector-effect="non-scaling-stroke" d="
  M 148.18 108.92
  L 138.51 108.81
  A 1.66 1.66 0.0 0 0 136.83 110.46
  L 136.73 141.51"
/>
<path stroke="#e08080" vector-effect="non-scaling-stroke" d="
  M 136.73 141.51
  L 113.32 141.61"
/>
<path stroke="#80b8e0" vector-effect="non-scaling-stroke" d="
  M 187.70 142.22
  Q 204.42 143.56 220.97 143.03"
/>
<path stroke="#084073" vector-effect="non-scaling-stroke" d="
  M 187.34 202.44
  L 186.74 210.48"
/>
<path stroke="#80b8e0" vector-effect="non-scaling-stroke" d="
  M 186.74 210.48
  L 186.35 188.83
  A 1.61 1.60 89.5 0 1 187.95 187.19
  L 218.96 187.22
  A 0.93 0.92 -90.0 0 0 219.88 186.29
  L 219.93 145.69
  A 0.99 0.99 0.0 0 0 218.94 144.70
  L 187.88 144.73
  A 1.59 1.59 0.0 0 1 186.29 143.13
  L 186.43 110.66
  Q 186.43 110.14 185.91 110.14
  L 138.71 110.22
  A 0.82 0.81 -90.0 0 0 137.90 111.04
  L 138.05 143.04
  A 1.57 1.57 0.0 0 1 136.46 144.62
  L 103.86 144.12"
/>
<path stroke="#084073" vector-effect="non-scaling-stroke" d="
  M 103.86 144.12
  Q 103.93 144.65 103.77 143.54"
/>
<path stroke="#603860" vector-effect="non-scaling-stroke" d="
  M 103.77 143.54
  L 109.72 143.20"
/>
<path stroke="#80b8e0" vector-effect="non-scaling-stroke" d="
  M 113.37 143.20
  L 135.65 143.24
  Q 136.19 143.24 136.45 142.77
  Q 136.72 142.28 136.73 141.51"
/>
<path stroke="#084073" vector-effect="non-scaling-stroke" d="
  M 104.14 186.02
  Q 103.47 186.72 104.06 188.19"
/>
<path stroke="#680813" vector-effect="non-scaling-stroke" d="
  M 103.77 143.54
  Q 103.66 143.66 103.59 143.75
  Q 103.40 143.97 103.40 144.25
  Q 103.01 165.63 103.32 186.99
  Q 103.33 187.49 104.06 188.19"
/>
<path stroke="#603860" vector-effect="non-scaling-stroke" d="
  M 104.06 188.19
  L 117.68 188.20"
/>
<path stroke="#680813" vector-effect="non-scaling-stroke" d="
  M 187.62 204.49
  L 187.91 219.49
  A 2.09 2.08 -0.9 0 1 185.84 221.62
  L 174.24 221.74"
/>
<path stroke="#888793" vector-effect="non-scaling-stroke" d="
  M 186.74 210.48
  L 186.78 219.69"
/>
<path stroke="#80b8e0" vector-effect="non-scaling-stroke" d="
  M 186.78 219.69
  Q 186.55 220.00 186.27 220.22
  Q 186.01 220.42 185.60 220.43
  Q 162.05 220.79 138.34 220.28
  Q 137.79 220.27 137.79 219.72
  L 137.92 188.71
  Q 137.92 187.30 136.51 187.28
  Q 121.57 187.08 107.26 187.26
  Q 104.56 187.29 104.14 186.02"
/>
<path stroke="#888793" vector-effect="non-scaling-stroke" d="
  M 104.14 186.02
  L 103.86 144.12"
/>
<path stroke="#084073" vector-effect="non-scaling-stroke" d="
  M 186.78 219.69
  Q 187.30 219.94 187.11 220.49
  Q 186.92 221.01 186.37 221.02
  L 173.76 221.27"
/>
<path stroke="#603860" vector-effect="non-scaling-stroke" d="
  M 153.08 221.94
  Q 151.40 221.37 150.75 221.40
  Q 144.29 221.71 138.36 221.16
  Q 136.72 221.01 136.73 219.37
  L 136.83 204.43"
/>
<path stroke="#e08080" vector-effect="non-scaling-stroke" d="
  M 134.83 230.14
  Q 135.05 228.27 134.22 226.68
  Q 133.96 226.18 133.73 226.69
  Q 133.03 228.25 134.08 230.10"
/>
<path stroke="#80b8e0" vector-effect="non-scaling-stroke" d="
  M 141.61 182.88
  A 0.70 0.70 0.0 0 1 142.31 183.58
  L 142.28 217.61
  A 0.70 0.70 0.0 0 0 142.98 218.31
  L 181.54 218.28
  A 0.70 0.70 0.0 0 0 182.24 217.58
  L 182.24 183.54
  A 0.70 0.70 0.0 0 1 182.94 182.84
  L 216.99 183.01
  A 0.70 0.70 0.0 0 0 217.69 182.31
  L 217.69 148.19
  A 0.70 0.70 0.0 0 0 216.99 147.49
  L 182.96 147.54
  A 0.70 0.70 0.0 0 1 182.26 146.84
  L 182.27 114.01
  A 0.70 0.70 0.0 0 0 181.57 113.31
  L 143.00 113.30
  A 0.70 0.70 0.0 0 0 142.30 114.00
  L 142.27 146.85
  A 0.70 0.70 0.0 0 1 141.57 147.55
  L 107.25 147.65
  A 0.70 0.70 0.0 0 0 106.55 148.35
  L 106.57 182.21
  A 0.70 0.70 0.0 0 0 107.27 182.91
  L 141.61 182.88"
/>
<path stroke="#e08080" vector-effect="non-scaling-stroke" d="
  M 192.7150 228.9501
  A 1.22 0.61 97.3 0 0 193.4751 227.8175
  A 1.22 0.61 97.3 0 0 193.0250 226.5299
  A 1.22 0.61 97.3 0 0 192.2649 227.6625
  A 1.22 0.61 97.3 0 0 192.7150 228.9501"
/>
</g>
<path fill="#c00000" d="
  M 209.18 188.40
  L 219.89 188.16
  A 1.24 1.23 89.3 0 0 221.09 186.92
  L 220.97 143.03
  Q 221.76 143.86 222.69 143.43
  A 1.01 1.01 0.0 0 0 222.31 141.51
  Q 205.50 140.91 187.70 142.22
  L 187.53 110.44
  A 1.48 1.48 0.0 0 0 186.06 108.96
  L 167.17 108.89
  C 163.40 100.77 158.12 95.56 148.67 96.97
  Q 148.19 97.04 148.19 97.53
  L 148.18 108.92
  L 138.51 108.81
  A 1.66 1.66 0.0 0 0 136.83 110.46
  L 136.73 141.51
  L 113.32 141.61
  Q 112.87 141.09 112.87 140.00
  Q 112.78 85.99 112.92 32.20
  A 0.90 0.90 0.0 0 1 113.82 31.30
  Q 141.89 31.24 170.07 31.29
  Q 173.71 31.29 178.42 31.76
  C 183.66 32.27 188.78 32.22 194.16 33.67
  C 204.93 36.55 212.32 43.38 215.07 54.50
  C 219.58 72.67 207.84 88.56 189.73 92.03
  Q 189.36 92.10 189.14 92.29
  Q 188.79 92.57 188.71 92.82
  A 0.99 0.97 16.0 0 0 189.41 94.06
  C 198.90 96.53 204.32 105.23 208.95 113.39
  Q 215.39 124.74 221.66 136.22
  A 0.94 0.94 0.0 0 0 223.42 135.76
  L 223.35 126.55
  A 2.59 2.57 71.3 0 1 224.37 124.47
  C 238.09 114.08 255.25 111.96 272.75 114.33
  Q 301.57 118.24 310.18 145.45
  A 1.00 1.00 0.0 0 1 309.45 146.73
  L 283.43 152.52
  A 1.51 1.51 0.0 0 1 281.65 151.50
  Q 277.88 139.66 265.27 137.77
  Q 250.34 135.54 242.67 148.94
  C 240.58 152.59 239.75 158.96 239.56 163.81
  C 239.05 176.99 238.91 195.61 255.54 199.37
  C 258.99 200.15 265.82 199.88 269.36 198.50
  C 277.74 195.24 280.90 187.30 283.01 179.15
  Q 283.16 178.57 283.74 178.75
  L 310.86 187.15
  A 0.74 0.74 0.0 0 1 311.36 188.04
  C 306.27 209.07 292.05 221.66 270.78 223.56
  C 267.09 223.89 263.78 224.46 260.09 224.18
  C 245.21 223.05 232.32 221.00 221.44 209.84
  Q 221.13 209.52 221.13 209.07
  L 221.19 202.98
  A 0.96 0.96 0.0 0 0 220.23 202.01
  L 215.81 202.01
  A 0.97 0.97 0.0 0 1 215.02 201.60
  Q 211.10 195.90 209.18 188.40
  Z
  M 148.15 53.28
  L 148.03 75.52
  A 0.21 0.21 0.0 0 0 148.24 75.74
  L 168.14 75.84
  A 12.69 9.94 0.3 0 0 180.88 65.97
  L 180.90 63.19
  A 12.69 9.94 0.3 0 0 168.26 53.18
  L 148.36 53.08
  A 0.21 0.21 0.0 0 0 148.15 53.28
  Z"
/>
<path fill="#0070c0" d="
  M 148.18 108.92
  L 167.17 108.89
  L 186.06 108.96
  A 1.48 1.48 0.0 0 1 187.53 110.44
  L 187.70 142.22
  Q 204.42 143.56 220.97 143.03
  L 221.09 186.92
  A 1.24 1.23 89.3 0 1 219.89 188.16
  L 209.18 188.40
  L 188.24 188.21
  A 0.96 0.96 0.0 0 0 187.27 189.18
  L 187.34 202.44
  L 186.74 210.48
  L 186.35 188.83
  A 1.61 1.60 89.5 0 1 187.95 187.19
  L 218.96 187.22
  A 0.93 0.92 -90.0 0 0 219.88 186.29
  L 219.93 145.69
  A 0.99 0.99 0.0 0 0 218.94 144.70
  L 187.88 144.73
  A 1.59 1.59 0.0 0 1 186.29 143.13
  L 186.43 110.66
  Q 186.43 110.14 185.91 110.14
  L 138.71 110.22
  A 0.82 0.81 -90.0 0 0 137.90 111.04
  L 138.05 143.04
  A 1.57 1.57 0.0 0 1 136.46 144.62
  L 103.86 144.12
  Q 103.93 144.65 103.77 143.54
  L 109.72 143.20
  Q 111.76 144.03 113.37 143.20
  L 135.65 143.24
  Q 136.19 143.24 136.45 142.77
  Q 136.72 142.28 136.73 141.51
  L 136.83 110.46
  A 1.66 1.66 0.0 0 1 138.51 108.81
  L 148.18 108.92
  Z"
/>
<path fill="#ffffff" d="
  M 186.74 210.48
  L 186.78 219.69
  Q 186.55 220.00 186.27 220.22
  Q 186.01 220.42 185.60 220.43
  Q 162.05 220.79 138.34 220.28
  Q 137.79 220.27 137.79 219.72
  L 137.92 188.71
  Q 137.92 187.30 136.51 187.28
  Q 121.57 187.08 107.26 187.26
  Q 104.56 187.29 104.14 186.02
  L 103.86 144.12
  L 136.46 144.62
  A 1.57 1.57 0.0 0 0 138.05 143.04
  L 137.90 111.04
  A 0.82 0.81 90.0 0 1 138.71 110.22
  L 185.91 110.14
  Q 186.43 110.14 186.43 110.66
  L 186.29 143.13
  A 1.59 1.59 0.0 0 0 187.88 144.73
  L 218.94 144.70
  A 0.99 0.99 0.0 0 1 219.93 145.69
  L 219.88 186.29
  A 0.93 0.92 -90.0 0 1 218.96 187.22
  L 187.95 187.19
  A 1.61 1.60 89.5 0 0 186.35 188.83
  L 186.74 210.48
  Z
  M 141.61 182.88
  A 0.70 0.70 0.0 0 1 142.31 183.58
  L 142.28 217.61
  A 0.70 0.70 0.0 0 0 142.98 218.31
  L 181.54 218.28
  A 0.70 0.70 0.0 0 0 182.24 217.58
  L 182.24 183.54
  A 0.70 0.70 0.0 0 1 182.94 182.84
  L 216.99 183.01
  A 0.70 0.70 0.0 0 0 217.69 182.31
  L 217.69 148.19
  A 0.70 0.70 0.0 0 0 216.99 147.49
  L 182.96 147.54
  A 0.70 0.70 0.0 0 1 182.26 146.84
  L 182.27 114.01
  A 0.70 0.70 0.0 0 0 181.57 113.31
  L 143.00 113.30
  A 0.70 0.70 0.0 0 0 142.30 114.00
  L 142.27 146.85
  A 0.70 0.70 0.0 0 1 141.57 147.55
  L 107.25 147.65
  A 0.70 0.70 0.0 0 0 106.55 148.35
  L 106.57 182.21
  A 0.70 0.70 0.0 0 0 107.27 182.91
  L 141.61 182.88
  Z"
/>
<path fill="#0070c0" d="
  M 141.61 182.88
  L 107.27 182.91
  A 0.70 0.70 0.0 0 1 106.57 182.21
  L 106.55 148.35
  A 0.70 0.70 0.0 0 1 107.25 147.65
  L 141.57 147.55
  A 0.70 0.70 0.0 0 0 142.27 146.85
  L 142.30 114.00
  A 0.70 0.70 0.0 0 1 143.00 113.30
  L 181.57 113.31
  A 0.70 0.70 0.0 0 1 182.27 114.01
  L 182.26 146.84
  A 0.70 0.70 0.0 0 0 182.96 147.54
  L 216.99 147.49
  A 0.70 0.70 0.0 0 1 217.69 148.19
  L 217.69 182.31
  A 0.70 0.70 0.0 0 1 216.99 183.01
  L 182.94 182.84
  A 0.70 0.70 0.0 0 0 182.24 183.54
  L 182.24 217.58
  A 0.70 0.70 0.0 0 1 181.54 218.28
  L 142.98 218.31
  A 0.70 0.70 0.0 0 1 142.28 217.61
  L 142.31 183.58
  A 0.70 0.70 0.0 0 0 141.61 182.88
  Z"
/>
<path fill="#c00000" d="
  M 109.72 143.20
  L 103.77 143.54
  Q 103.66 143.66 103.59 143.75
  Q 103.40 143.97 103.40 144.25
  Q 103.01 165.63 103.32 186.99
  Q 103.33 187.49 104.06 188.19
  L 117.68 188.20
  Q 115.65 194.41 112.37 200.07
  C 111.30 201.92 109.83 202.57 107.82 201.89
  A 1.21 1.20 0.9 0 0 106.28 203.38
  C 107.03 205.83 106.49 207.60 104.50 209.29
  C 90.37 221.22 69.69 223.45 52.12 219.69
  C 31.74 215.34 18.61 201.76 15.23 180.75
  C 10.91 153.86 20.20 126.67 48.69 118.87
  C 67.99 113.59 91.31 116.29 106.59 130.39
  C 110.87 134.34 109.73 137.89 109.72 143.20
  Z
  M 65.44 198.11
  C 89.10 199.90 89.61 176.85 88.50 160.41
  C 87.51 145.93 76.78 137.41 62.62 139.97
  Q 48.01 142.60 46.05 160.31
  Q 44.89 170.79 45.74 177.00
  C 47.36 188.82 52.69 197.15 65.44 198.11
  Z"
/>
<path fill="#ffffff" d="
  M 136.73 141.51
  Q 136.72 142.28 136.45 142.77
  Q 136.19 143.24 135.65 143.24
  L 113.37 143.20
  L 113.32 141.61
  L 136.73 141.51
  Z"
/>
<path fill="#ffffff" d="
  M 187.70 142.22
  Q 205.50 140.91 222.31 141.51
  A 1.01 1.01 0.0 0 1 222.69 143.43
  Q 221.76 143.86 220.97 143.03
  Q 204.42 143.56 187.70 142.22
  Z"
/>
<path fill="#100f26" d="
  M 103.77 143.54
  Q 103.93 144.65 103.86 144.12
  L 104.14 186.02
  Q 103.47 186.72 104.06 188.19
  Q 103.33 187.49 103.32 186.99
  Q 103.01 165.63 103.40 144.25
  Q 103.40 143.97 103.59 143.75
  Q 103.66 143.66 103.77 143.54
  Z"
/>
<path fill="#0070c0" d="
  M 104.14 186.02
  Q 104.56 187.29 107.26 187.26
  Q 121.57 187.08 136.51 187.28
  Q 137.92 187.30 137.92 188.71
  L 137.79 219.72
  Q 137.79 220.27 138.34 220.28
  Q 162.05 220.79 185.60 220.43
  Q 186.01 220.42 186.27 220.22
  Q 186.55 220.00 186.78 219.69
  Q 187.30 219.94 187.11 220.49
  Q 186.92 221.01 186.37 221.02
  L 173.76 221.27
  L 153.08 221.94
  Q 151.40 221.37 150.75 221.40
  Q 144.29 221.71 138.36 221.16
  Q 136.72 221.01 136.73 219.37
  L 136.83 204.43
  L 136.90 188.62
  A 0.46 0.46 0.0 0 0 136.44 188.16
  L 117.68 188.20
  L 104.06 188.19
  Q 103.47 186.72 104.14 186.02
  Z"
/>
<path fill="#100f26" d="
  M 187.34 202.44
  L 187.62 204.49
  L 187.91 219.49
  A 2.09 2.08 -0.9 0 1 185.84 221.62
  L 174.24 221.74
  L 173.76 221.27
  L 186.37 221.02
  Q 186.92 221.01 187.11 220.49
  Q 187.30 219.94 186.78 219.69
  L 186.74 210.48
  L 187.34 202.44
  Z"
/>
<path fill="#c00000" d="
  M 136.83 204.43
  L 136.73 219.37
  Q 136.72 221.01 138.36 221.16
  Q 144.29 221.71 150.75 221.40
  Q 151.40 221.37 153.08 221.94
  Q 157.96 238.48 162.28 255.24
  Q 162.52 256.17 163.18 256.63
  A 0.79 0.78 25.3 0 0 164.38 256.20
  L 173.66 222.61
  Q 173.75 222.30 174.00 222.09
  Q 174.21 221.92 174.24 221.74
  L 185.84 221.62
  A 2.09 2.08 -0.9 0 0 187.91 219.49
  L 187.62 204.49
  L 216.52 204.48
  Q 217.75 204.48 217.75 205.72
  L 217.73 291.34
  A 1.33 1.32 90.0 0 1 216.41 292.67
  L 195.64 292.64
  Q 193.64 292.64 193.64 290.64
  L 193.68 229.74
  A 0.78 0.78 0.0 0 0 192.89 228.96
  Q 191.67 228.98 191.34 230.22
  Q 183.11 260.93 174.61 290.82
  Q 174.10 292.64 172.20 292.64
  L 154.34 292.66
  A 2.03 2.03 0.0 0 1 152.39 291.19
  Q 143.97 261.17 135.49 230.74
  Q 135.37 230.30 134.83 230.14
  Q 135.05 228.27 134.22 226.68
  Q 133.96 226.18 133.73 226.69
  Q 133.03 228.25 134.08 230.10
  Q 133.36 230.26 133.36 230.75
  Q 133.44 261.10 133.40 291.18
  Q 133.40 292.64 131.94 292.64
  L 110.04 292.66
  A 0.87 0.87 0.0 0 1 109.17 291.79
  L 109.10 205.74
  Q 109.10 204.46 110.38 204.46
  L 136.83 204.43
  Z
  M 192.7150 228.9501
  A 1.22 0.61 97.3 0 0 193.4751 227.8175
  A 1.22 0.61 97.3 0 0 193.0250 226.5299
  A 1.22 0.61 97.3 0 0 192.2649 227.6625
  A 1.22 0.61 97.3 0 0 192.7150 228.9501
  Z"
/>
<path fill="#ffffff" d="
  M 134.83 230.14
  Q 134.10 229.88 134.08 230.10
  Q 133.03 228.25 133.73 226.69
  Q 133.96 226.18 134.22 226.68
  Q 135.05 228.27 134.83 230.14
  Z"
/>
<ellipse fill="#ffffff" cx="0.00" cy="0.00" transform="translate(192.87,227.74) rotate(97.3)" rx="1.22" ry="0.61"/>
</svg>
